 <svg  version="1.0" xmlns="http://www.w3.org/2000/svg"  width="300.000000pt" height="279.000000pt" viewBox="0 0 300.000000 279.000000"  preserveAspectRatio="xMidYMid meet">  <g transform="translate(0.000000,279.000000) scale(0.100000,-0.100000)" fill="none" stroke="chocolate" stroke-width="5">

 <path d="M1199 2614 c-3 -24 4 -71 13 -87 5 -10 8 -20 6 -23 -2 -2 -33 6 -69 17 -35 11 -75 22 -89 24 -14 1 -32 6 -41 9 -12 5 -18 0 -23 -25 -13 -67 -7 -104 29 -163 19 -32 35 -64 35 -70 0 -6 13 -24 30 -39 26 -25 29 -33 25 -75 -3 -31 1 -54 11 -69 23 -37 29 -27 26 43 -5 90 9 106 87 98 50 -5 60 -3 91 20 61 45 132 75 209 87 103 15 115 8 141 -83 12 -40 23 -79 26 -86 4 -13 43 -8 74 9 10 6 4 9 -20 9 l-35 2 30 10 c17 6 36 15 43 21 11 8 12 5 7 -16 -5 -17 -3 -27 4 -27 30 0 -17 -65 -58 -81 -20 -8 -22 -14 -17 -42 3 -17 8 -66 12 -108 8 -89 -9 -132 -75 -192 -50 -45 -61 -46 -61 -6 0 55 -15 69 -74 69 -40 0 -62 -6 -90 -25 -74 -50 -94 -57 -131 -45 -25 8 -40 8 -54 0 -20 -10 -20 -12 -5 -51 20 -47 12 -61 -18 -31 -14 13 -24 40 -28 72 -6 48 -5 51 19 56 14 3 31 7 38 9 17 6 45 51 52 87 4 17 14 36 24 42 15 9 23 5 50 -26 49 -55 62 -59 144 -38 126 33 140 51 130 176 -4 57 -2 74 8 74 7 0 18 7 25 15 15 18 8 18 -48 2 -28 -9 -62 -11 -100 -6 -95 12 -157 10 -178 -5 -18 -14 -18 -16 -2 -32 16 -16 22 -16 95 -2 43 9 79 14 81 13 2 -2 -38 -17 -208 -80 -46 -17 -181 -30 -160 -16 8 6 29 11 45 11 17 0 41 7 53 16 28 19 30 54 2 54 -25 0 -130 -58 -137 -75 -2 -7 -19 -16 -37 -19 -18 -4 -41 -12 -50 -19 -18 -13 -18 -16 3 -62 34 -78 67 -115 102 -115 27 0 29 -3 30 -37 2 -163 38 -247 134 -311 62 -41 66 -52 23 -52 -18 -1 -51 -7 -73 -15 -63 -23 -70 -20 -94 36 -25 61 -26 69 -6 69 8 0 15 7 15 15 0 8 -6 15 -13 15 -24 0 -132 59 -156 84 -22 23 -23 28 -11 56 15 37 8 116 -13 137 -14 14 -15 12 -14 -18 2 -29 -2 -35 -21 -37 -31 -5 -59 22 -67 62 -3 17 -12 58 -20 91 -7 33 -16 88 -19 123 -5 51 -3 62 9 62 9 0 24 5 35 12 29 19 34 3 10 -30 -21 -28 -22 -36 -15 -146 4 -64 10 -118 14 -120 3 -2 6 33 7 77 0 46 8 108 18 141 10 32 16 76 15 97 -3 29 3 44 20 63 25 26 23 52 -5 63 -10 4 -26 -4 -42 -22 -26 -27 -26 -27 -4 -22 18 4 22 1 22 -19 0 -26 -32 -64 -53 -64 -7 0 -22 7 -33 15 -19 15 -18 16 8 39 29 26 19 41 -16 24 -16 -9 -18 -19 -12 -101 10 -148 17 -190 34 -219 22 -37 8 -49 -41 -38 -37 8 -39 7 -33 -13 3 -12 6 -25 6 -28 0 -3 19 -5 43 -5 36 1 42 -2 45 -21 3 -19 -1 -23 -25 -23 -15 0 -45 -3 -65 -6 -31 -5 -38 -4 -38 10 0 9 -4 16 -10 16 -11 0 -13 -11 -4 -34 5 -13 19 -14 85 -9 76 6 79 5 79 -15 0 -23 -8 -26 -93 -37 -33 -4 -53 -2 -64 7 -14 11 -15 10 -8 -12 11 -35 8 -34 74 -20 33 7 72 10 87 7 25 -5 26 -3 21 34 -6 44 8 52 23 13 14 -36 1 -134 -17 -134 -11 0 -13 7 -9 26 6 23 4 26 -11 19 -10 -3 -44 -11 -76 -17 -44 -8 -61 -7 -72 2 -23 19 -28 6 -8 -18 16 -18 37 -22 180 -31 90 -6 168 -14 175 -16 20 -8 42 -66 73 -192 15 -62 31 -113 35 -113 15 0 71 -111 68 -133 -3 -18 -8 -12 -28 26 -13 27 -26 44 -28 39 -3 -10 55 -252 63 -260 3 -3 5 4 5 16 0 26 -5 26 126 6 70 -11 104 -21 104 -29 0 -19 53 -28 121 -20 56 7 61 6 66 -14 5 -20 6 -20 19 -4 17 23 18 39 2 40 -81 5 -191 23 -203 33 -12 10 -18 10 -30 0 -15 -12 -21 -3 -16 24 1 5 4 32 7 60 2 28 7 61 10 74 6 28 56 80 91 93 31 12 119 12 142 0 10 -6 23 -6 31 -1 41 25 124 -89 111 -154 -7 -32 -36 -53 -82 -58 -20 -3 -24 1 -21 22 6 56 6 86 -1 113 -6 21 -5 27 4 22 8 -6 8 -2 0 14 -13 24 -23 28 -15 6 5 -11 2 -13 -10 -9 -20 8 -21 -3 -1 -22 8 -9 15 -33 15 -57 0 -33 -6 -48 -32 -74 -18 -18 -27 -33 -20 -33 7 0 12 5 12 10 0 18 28 11 35 -9 4 -13 13 -18 28 -15 22 5 22 4 1 -5 -25 -11 -39 -51 -18 -51 8 0 14 7 14 15 0 8 5 15 11 15 5 0 7 -4 4 -10 -7 -11 4 -13 47 -10 14 1 30 -5 35 -12 4 -7 20 -19 36 -27 15 -8 27 -21 27 -29 0 -11 -12 -13 -62 -7 -177 21 -268 21 -304 2 -16 -9 -23 -16 -16 -17 17 0 15 -29 -3 -36 -25 -10 -17 -25 11 -22 34 4 41 -15 12 -30 l-23 -12 23 6 c18 4 25 1 29 -15 5 -19 12 -21 94 -21 80 0 89 -2 100 -21 11 -22 1 -37 -26 -40 -5 0 1 -5 15 -9 36 -11 142 -11 160 0 11 7 0 10 -36 10 -36 0 -59 6 -75 19 l-24 19 25 6 c14 2 49 7 78 10 28 3 60 10 70 16 13 9 8 9 -23 4 -22 -5 -69 -8 -105 -8 -55 0 -70 4 -88 22 -12 12 -27 22 -34 22 -6 0 -3 6 8 14 17 13 10 14 -63 9 -82 -5 -83 -5 -83 19 0 19 9 26 53 41 64 20 67 21 67 5 0 -15 211 -19 221 -4 4 4 15 4 25 -2 30 -16 100 -18 118 -3 22 18 20 1 -4 -27 -16 -19 -29 -23 -79 -24 -33 0 -58 -4 -56 -8 7 -12 -78 -20 -92 -9 -6 6 -22 9 -34 7 -21 -3 -21 -4 7 -17 16 -7 36 -17 45 -21 9 -5 21 -4 27 2 5 5 39 12 75 15 80 7 95 -7 48 -49 -28 -25 -39 -28 -104 -29 -66 -1 -69 -2 -37 -11 45 -13 134 -4 166 17 24 16 32 49 14 60 -13 8 -1 35 16 35 8 0 31 -8 52 -19 38 -19 62 -18 160 6 l33 8 -55 27 c-53 27 -72 48 -42 48 8 0 37 -12 65 -26 l51 -27 62 23 c34 12 73 22 87 22 38 1 114 36 105 49 -5 8 0 10 17 6 61 -14 142 -19 135 -8 -4 6 -16 11 -28 11 -35 0 -231 50 -265 68 -18 9 -35 14 -38 10 -3 -3 9 -12 26 -20 17 -9 26 -18 20 -22 -11 -7 -151 8 -186 19 -12 4 -7 -2 10 -14 24 -17 45 -21 105 -21 42 0 80 4 86 10 7 7 25 6 54 -3 l45 -13 -35 -8 c-34 -8 -34 -9 -10 -16 20 -5 13 -8 -35 -14 -57 -7 -139 -31 -160 -47 -5 -4 -26 0 -45 8 l-35 16 45 8 c25 4 66 10 93 14 71 10 60 28 -13 20 -57 -7 -65 -5 -146 35 -48 23 -105 44 -128 47 -22 3 -65 14 -94 24 -29 10 -68 19 -87 19 -26 0 -35 4 -35 16 0 14 10 15 78 9 99 -8 122 -14 122 -30 0 -14 30 -18 105 -16 140 6 164 5 210 -1 l50 -7 -43 11 -43 11 6 61 c3 33 8 71 11 83 4 13 0 29 -10 38 -14 14 -13 20 4 60 10 24 20 52 22 62 2 10 6 20 9 23 13 10 60 141 57 158 -2 12 -12 4 -36 -31 -18 -26 -30 -52 -26 -59 5 -7 3 -8 -6 -3 -9 6 -10 2 -5 -15 5 -17 4 -21 -6 -15 -9 6 -11 2 -7 -12 3 -11 -3 -35 -13 -54 -10 -19 -19 -29 -19 -24 -1 8 -40 -83 -40 -92 0 -2 5 -3 10 -3 6 0 10 7 10 15 0 8 4 15 10 15 5 0 7 -7 4 -15 -4 -8 -1 -15 5 -15 6 0 9 -6 6 -13 -2 -6 -6 -41 -9 -76 -3 -35 -8 -66 -10 -68 -3 -3 -17 -6 -33 -8 -15 -1 -51 -6 -78 -10 -42 -6 -58 -3 -93 15 -44 23 -55 34 -58 60 -1 8 -5 30 -9 47 -6 26 -4 34 10 39 32 13 -7 24 -82 24 l-73 0 0 -59 c0 -37 -5 -63 -14 -70 -11 -9 -14 -4 -19 23 -8 53 -36 104 -68 127 -34 24 -36 35 -10 44 11 3 23 14 26 24 3 12 20 22 43 26 35 6 52 19 52 39 0 5 -8 2 -18 -7 -10 -10 -27 -17 -37 -17 -17 0 -16 3 7 28 14 15 27 34 30 42 7 19 99 21 105 3 3 -9 -9 -13 -39 -15 l-43 -1 45 -6 44 -6 27 -70 c15 -38 28 -78 28 -87 1 -10 6 -18 11 -18 13 0 15 -7 -29 121 -21 63 -42 128 -45 144 l-7 30 23 -31 c21 -27 27 -29 58 -23 42 9 50 5 50 -26 0 -19 -6 -24 -32 -28 l-33 -4 33 -1 c27 -2 32 -6 32 -28 0 -14 4 -23 9 -20 13 9 22 -75 12 -109 -5 -16 -10 -25 -10 -18 -1 7 -8 10 -17 6 -22 -8 -6 -19 39 -27 40 -8 47 -1 20 21 -10 7 -13 13 -8 12 22 -3 23 3 9 53 -9 28 -17 74 -19 102 -3 47 -9 81 -22 128 -3 13 0 16 11 12 19 -7 20 3 5 62 -19 75 -39 51 -39 -47 0 -43 -4 -59 -14 -59 -7 0 -27 -3 -44 -6 -28 -6 -32 -3 -52 36 -18 35 -20 47 -11 72 23 65 8 136 -33 157 -11 6 -30 17 -41 26 -19 14 -24 12 -70 -26 -28 -23 -58 -53 -67 -68 -25 -37 -22 -13 3 28 11 19 25 63 31 98 8 56 7 68 -11 106 -11 23 -25 69 -31 102 -6 33 -14 73 -17 89 -7 34 31 112 57 119 21 5 16 63 -8 90 -14 15 -13 19 1 35 22 24 21 35 -3 57 -11 10 -20 27 -20 38 0 27 -28 46 -67 47 -23 0 -33 5 -33 15 0 26 -29 74 -52 86 -11 6 -64 17 -117 25 -53 7 -106 16 -118 19 -18 6 -21 4 -16 -13 5 -21 14 -24 108 -38 28 -4 53 -8 58 -10 4 -1 14 -2 23 -3 20 -1 74 -55 74 -74 0 -8 -9 -25 -21 -38 -20 -24 -20 -24 -14 -2 3 13 2 31 -4 40 -8 15 -10 13 -8 -12 2 -24 -2 -30 -18 -31 -11 -1 -28 -5 -39 -9 -12 -5 -21 -3 -27 6 -6 10 -9 10 -9 2 0 -26 -27 -12 -36 18 -5 18 -20 38 -34 46 -17 10 -20 11 -9 2 9 -8 21 -24 27 -36 27 -49 2 -72 -34 -32 -18 20 -74 54 -74 45 0 -2 16 -14 35 -26 34 -21 44 -43 25 -55 -5 -3 -22 9 -37 27 -43 49 -76 79 -81 73 -3 -3 16 -25 41 -50 26 -25 47 -49 47 -54 0 -9 -39 -26 -44 -19 -2 1 -15 22 -30 45 -17 28 -31 40 -40 37 -12 -4 -8 -14 17 -41 37 -40 52 -73 34 -73 -7 0 -25 -7 -42 -16 -20 -11 -44 -14 -72 -10 -25 3 -43 2 -43 -4 0 -16 -19 -12 -50 10 -15 11 -30 16 -34 12 -4 -4 -7 -2 -5 3 1 6 -4 24 -11 40 -7 17 -14 35 -16 40 -1 6 -9 30 -18 54 -23 64 -21 75 12 67 28 -7 80 -14 144 -20 20 -2 49 -11 63 -20 15 -10 29 -15 32 -13 2 3 -5 10 -16 16 -22 12 -54 65 -45 74 3 3 26 -3 51 -14 26 -11 51 -18 56 -16 6 2 -9 11 -32 21 -68 27 -41 29 32 3 53 -19 64 -21 63 -9 -2 10 -36 26 -92 44 -49 17 -95 34 -101 40 -7 6 -13 7 -14 2z m530 -195 l32 -11 -33 -29 c-40 -34 -44 -35 -58 -9 -8 14 -8 26 0 40 12 23 16 24 59 9z m51 -47 c0 -10 7 -27 15 -38 24 -32 18 -62 -15 -79 -16 -8 -35 -15 -43 -15 -23 0 -29 41 -9 65 9 11 10 14 2 8 -21 -19 -32 -16 -20 7 9 16 8 19 -6 13 -27 -10 -7 16 30 38 39 24 46 24 46 1z m-156 -288 c3 -9 6 -41 6 -73 0 -56 -1 -58 -37 -75 -21 -10 -63 -21 -95 -23 l-56 -6 -20 39 c-37 73 -37 81 0 100 45 24 137 53 169 53 16 1 29 -6 33 -15z m-254 -85 c0 -6 -4 -7 -10 -4 -5 3 -10 2 -10 -3 0 -5 -10 -8 -22 -7 -35 4 -35 5 -3 19 31 14 45 12 45 -5z m-84 -24 c29 -71 8 -119 -59 -131 l-37 -6 3 56 c3 44 0 59 -15 73 -25 22 -23 31 10 36 73 11 82 9 98 -28z m-121 -37 c3 -24 9 -56 12 -71 8 -43 -26 -32 -54 18 -37 69 -33 85 29 94 3 1 9 -18 13 -41z m629 -80 c16 -38 21 -112 5 -103 -9 6 -3 -42 7 -54 7 -8 -39 -106 -57 -119 -10 -7 -31 -38 -45 -68 -40 -85 -65 -109 -129 -124 -64 -15 -92 -6 -88 28 3 21 -24 33 -84 37 -40 3 -59 17 -68 53 -7 25 -8 25 -15 7 -7 -18 -8 -18 -15 7 -4 16 -10 26 -14 23 -11 -6 -38 45 -45 85 -3 19 -3 29 0 22 5 -10 9 -10 21 -1 17 15 30 1 40 -44 4 -19 8 -24 14 -16 6 10 10 10 23 0 8 -7 23 -11 33 -9 14 2 9 8 -18 24 -27 16 -41 34 -52 68 -17 50 -11 58 19 25 48 -54 124 -43 191 27 24 24 45 44 47 44 2 0 6 -21 8 -46 3 -44 1 -48 -40 -85 l-44 -38 17 -45 c10 -25 24 -51 33 -58 10 -9 8 0 -7 29 -18 35 -19 46 -9 68 8 18 14 22 20 13 5 -10 8 -8 8 5 0 11 6 17 18 15 12 -2 18 5 20 25 2 15 8 27 13 27 6 0 8 4 5 8 -2 4 4 19 14 32 14 19 22 22 31 13 9 -9 19 -3 45 23 19 18 34 38 34 45 0 6 6 9 13 6 10 -4 13 2 9 19 -2 14 0 24 7 24 7 0 9 5 6 10 -6 9 1 30 10 30 2 0 11 -15 19 -32z m-254 -49 l-25 -7 25 -2 c21 -2 22 -3 5 -7 -11 -3 -24 -9 -29 -14 -13 -12 -76 -12 -76 1 0 5 17 14 38 20 20 5 44 14 52 19 8 5 19 7 24 3 6 -3 0 -9 -14 -13z m-20 -74 c-20 -24 -85 -55 -115 -55 -28 0 -65 16 -65 28 0 4 18 8 41 10 22 1 64 11 92 21 58 20 66 19 47 -4z m449 -53 c39 -32 45 -76 17 -134 -22 -47 -38 -52 -73 -25 -27 20 -26 20 5 -16 36 -42 36 -41 22 -68 -10 -17 -14 -15 -53 25 -30 32 -55 48 -89 56 -42 11 -46 14 -37 31 5 11 16 19 25 19 8 0 18 10 23 23 14 34 91 117 110 117 9 0 32 -12 50 -28z m-959 -77 c28 -30 22 -39 -19 -30 -32 7 -35 12 -25 39 8 22 17 20 44 -9z m831 -123 c24 -16 50 -40 58 -55 13 -25 11 -29 -38 -96 -69 -92 -98 -110 -181 -109 -36 1 -87 -6 -115 -15 -27 -8 -83 -19 -124 -22 -53 -5 -79 -13 -93 -27 -23 -23 -21 -25 -40 32 -9 25 -19 52 -23 61 -5 13 2 18 32 24 21 3 92 24 157 46 66 21 130 39 144 39 29 0 62 17 62 32 0 6 14 35 31 64 37 65 61 69 130 26z m168 -44 c1 -16 -4 -28 -11 -28 -7 0 -23 -3 -36 -6 l-23 -7 16 38 c8 21 21 45 27 53 10 12 13 11 19 -5 4 -10 8 -30 8 -45z m-549 -33 c0 -7 3 -27 6 -45 l7 -32 -84 7 c-112 8 -172 16 -166 21 10 11 116 32 134 28 13 -4 31 4 49 19 28 25 54 26 54 2z m-214 -87 c10 -12 13 -18 7 -14 -15 8 -17 -5 -4 -19 4 -6 20 -37 35 -70 14 -33 19 -51 10 -40 -23 30 -84 142 -84 154 0 17 15 13 36 -11z m252 -183 c2 -15 -2 -31 -9 -36 -7 -4 -12 -24 -11 -46 1 -21 -1 -51 -4 -66 -5 -25 -9 -28 -32 -22 -35 9 -54 25 -48 42 3 7 1 13 -4 13 -13 0 -13 -16 1 -42 13 -24 9 -29 -16 -22 -18 4 -20 12 -17 70 l4 66 36 -6 37 -6 -26 15 c-15 8 -41 16 -58 17 -17 1 -31 5 -31 8 0 9 72 32 108 35 18 1 35 5 39 9 13 13 28 -1 31 -29z m560 -20 c3 -39 2 -41 -47 -62 -27 -13 -52 -23 -55 -23 -3 0 -6 29 -6 66 l0 65 53 -3 52 -3 3 -40z m-717 -148 c-18 -18 -31 5 -31 58 0 41 4 56 18 64 15 9 17 3 20 -51 2 -34 -1 -65 -7 -71z m729 72 c0 -14 -5 -19 -17 -17 -26 5 -29 38 -4 38 15 0 21 -6 21 -21z m-166 -56 c3 -4 -4 -13 -16 -20 -20 -11 -10 -12 74 -13 91 0 96 -1 91 -20 -4 -14 -14 -20 -35 -20 -17 0 -27 4 -23 10 3 6 -3 10 -14 10 -41 0 -29 -19 16 -26 27 -3 54 -11 60 -16 9 -7 15 -5 19 6 4 10 13 15 20 12 8 -3 11 0 7 9 -3 8 -9 12 -14 9 -5 -3 -9 0 -9 6 0 6 8 9 18 6 9 -2 32 -8 51 -11 40 -8 134 -58 139 -74 2 -6 -5 -12 -15 -13 -35 -3 -48 -5 -85 -12 -25 -5 -53 -3 -85 7 -26 9 -74 21 -105 27 -32 6 -58 15 -58 20 0 10 -56 30 -86 30 -26 0 -45 21 -25 28 7 2 23 15 34 28 22 25 29 28 41 17z m325 -206 c52 -18 47 -32 -13 -35 -47 -3 -55 0 -70 23 l-16 25 32 -1 c18 0 48 -5 67 -12z"/> <path d="M1511 2057 c-31 -16 -47 -55 -25 -64 25 -9 41 14 26 37 -11 18 -10 20 17 20 16 0 34 -7 41 -15 10 -12 16 -13 27 -3 13 10 10 14 -18 24 -43 16 -40 16 -68 1z"/> <path d="M1220 1972 c0 -6 -3 -17 -6 -26 -4 -11 0 -16 14 -16 30 0 35 15 12 35 -11 10 -20 13 -20 7z"/> <path d="M1656 1640 c15 -28 29 -48 32 -46 5 6 -46 96 -54 96 -3 0 7 -23 22 -50z"/> <path d="M1422 1631 c-18 -3 -32 -10 -31 -16 8 -40 10 -42 47 -35 30 5 36 10 34 25 -5 28 -13 32 -50 26z"/> <path d="M1551 1582 c-1 -19 24 -64 48 -86 11 -10 18 -23 15 -27 -3 -5 3 -6 12 -2 12 4 14 8 5 11 -11 4 -58 68 -73 102 -5 10 -7 11 -7 2z"/> <path d="M2136 881 l-30 -6 28 -13 c22 -10 36 -10 62 -2 68 23 21 39 -60 21z"/> <path d="M1427 2256 c-3 -7 -22 -17 -43 -21 -56 -10 -140 -44 -166 -66 -19 -16 -14 -15 27 5 28 14 82 32 120 42 74 18 98 30 89 45 -8 13 -21 11 -27 -5z"/> <path d="M1863 2122 c-28 -38 -65 -112 -56 -112 5 0 15 13 25 29 9 16 26 35 38 41 22 12 22 11 16 -24 -4 -20 -17 -58 -29 -84 -11 -26 -23 -51 -26 -57 -2 -5 3 -4 12 3 24 20 56 112 61 176 5 64 -8 73 -41 28z"/> <path d="M2262 1592 c-68 -196 -74 -266 -11 -135 65 136 82 185 67 194 -25 16 -33 8 -56 -59z"/> <path d="M2340 1558 c-67 -152 -109 -238 -116 -238 -3 0 -4 9 -1 20 3 11 1 18 -3 15 -10 -6 -1 -114 12 -135 6 -11 7 -9 3 7 -4 15 8 54 35 114 22 51 38 94 36 97 -3 2 5 25 18 51 37 71 56 121 47 121 -4 0 -18 -24 -31 -52z"/> <path d="M340 1560 c9 -17 14 -19 26 -9 11 9 62 11 202 6 117 -3 178 -2 164 4 -13 5 -109 11 -213 15 l-191 6 12 -22z"/> <path d="M320 1531 c0 -8 16 -60 27 -91 4 -8 6 -18 5 -22 -1 -4 3 -20 10 -35 6 -15 13 -37 15 -48 2 -11 6 -27 10 -35 3 -8 7 -19 8 -25 7 -49 35 -125 45 -125 10 0 -16 94 -72 268 -35 109 -48 140 -48 113z"/> <path d="M2346 1368 c-21 -44 -43 -78 -51 -78 -8 0 -19 -18 -26 -42 -6 -24 -15 -53 -20 -65 -7 -19 -5 -23 10 -23 21 0 31 19 31 59 0 16 11 40 24 54 14 15 27 36 31 47 3 11 11 20 16 20 5 0 9 9 9 21 0 11 5 29 11 40 6 11 8 25 6 32 -3 7 -21 -23 -41 -65z"/> <path d="M1977 1308 c5 -7 26 -34 47 -60 l37 -48 -68 -2 -68 -2 75 -5 c41 -3 77 -5 79 -4 6 4 -93 132 -103 133 -5 0 -4 -6 1 -12z"/> <path d="M750 1167 c0 -29 33 -83 60 -97 12 -6 23 -10 25 -8 7 7 8 54 1 73 -15 41 -24 50 -54 52 -27 2 -32 -1 -32 -20z"/> <path d="M425 1116 c-9 -32 16 -90 41 -100 8 -3 14 -13 14 -23 0 -14 2 -15 13 -4 10 10 9 14 -5 22 -15 8 -42 69 -51 114 -3 16 -5 15 -12 -9z"/> <path d="M394 931 c-5 -5 -20 -11 -34 -13 -22 -3 -25 -9 -28 -47 -2 -24 1 -48 6 -53 12 -12 192 1 192 13 0 5 -43 9 -95 9 -73 0 -95 3 -95 14 0 10 19 13 85 12 l86 -2 -7 31 c-9 43 -11 45 -44 33 -22 -7 -34 -7 -43 1 -8 6 -17 7 -23 2z"/> <path d="M1308 838 c8 -35 16 -64 18 -66 5 -7 119 35 177 65 15 8 31 12 35 9 4 -2 14 -1 22 5 12 7 9 9 -10 10 -14 1 -36 3 -50 4 -32 3 -170 25 -191 31 -16 4 -16 0 -1 -58z"/> <path d="M1768 873 c-37 -10 -17 -24 25 -18 23 4 55 2 71 -5 43 -16 45 -3 3 15 -36 15 -65 17 -99 8z"/> <path d="M2620 846 c0 -5 84 -37 130 -51 53 -16 4 14 -57 34 -65 22 -73 24 -73 17z"/> <path d="M206 831 c-4 -5 -6 -26 -4 -46 2 -34 10 -40 45 -36 6 1 13 -6 15 -15 3 -18 66 -35 553 -144 238 -53 658 -147 715 -160 19 -5 62 -14 96 -21 l61 -12 152 63 c84 35 163 71 176 81 13 11 26 19 29 19 4 0 23 7 44 16 20 10 42 18 47 19 6 2 73 31 150 65 77 34 169 74 205 90 36 16 77 32 92 35 18 5 25 12 21 21 -5 13 -8 13 -23 -1 -10 -9 -44 -19 -76 -22 -33 -3 -75 -14 -94 -23 -19 -10 -42 -21 -50 -24 -8 -4 -28 -15 -45 -26 -38 -24 -243 -125 -276 -135 -13 -4 -33 -15 -44 -24 -11 -10 -79 -43 -150 -75 l-130 -56 -705 155 c-461 101 -720 163 -748 178 -55 28 -53 53 3 50 l40 -2 -40 11 c-22 6 -43 15 -46 21 -4 5 -9 5 -13 -2z"/> <path d="M1508 798 c-13 -13 -22 -22 -19 -21 2 2 11 -3 19 -10 13 -10 14 -9 8 1 -5 8 -1 18 10 27 11 7 16 16 13 20 -4 3 -18 -4 -31 -17z"/> <path d="M546 797 c3 -8 15 -17 27 -20 12 -3 179 -35 370 -73 l349 -68 106 37 c73 25 108 41 111 53 2 13 -1 15 -15 9 -40 -16 -110 -43 -131 -49 -18 -6 -23 -3 -23 12 0 26 11 34 27 21 9 -8 13 -8 13 -1 0 6 7 9 16 5 12 -4 15 -2 12 8 -3 8 4 20 16 27 19 12 19 13 1 6 -11 -4 -39 -13 -62 -21 -39 -14 -42 -17 -36 -43 5 -25 2 -29 -23 -32 -16 -2 -67 3 -114 10 -95 15 -593 115 -628 127 -18 6 -21 4 -16 -8z"/> <path d="M1723 653 c-7 -3 -13 -14 -13 -26 0 -17 -7 -22 -29 -24 -18 -1 -31 4 -35 12 -3 8 -10 15 -16 15 -6 0 -8 -4 -5 -10 3 -5 1 -10 -4 -10 -6 0 -11 7 -11 15 0 8 -5 15 -11 15 -5 0 -8 -4 -5 -9 4 -5 -19 -11 -49 -13 -37 -2 -55 1 -55 9 0 6 6 14 13 17 6 4 -4 3 -23 -1 -19 -3 -50 -6 -67 -6 -18 0 -33 -4 -33 -9 0 -4 5 -8 11 -8 5 0 8 -4 5 -9 -8 -12 83 -23 123 -15 20 4 54 0 89 -10 50 -15 62 -16 97 -3 29 10 41 20 43 37 4 25 -7 40 -25 33z"/> <path d="M1281 596 c3 -3 27 -10 53 -15 26 -5 44 -5 39 -1 -9 9 -101 25 -92 16z"/> <path d="M1765 531 c-22 -11 -33 -20 -25 -20 8 0 31 8 50 19 45 25 27 25 -25 1z"/> </g> </svg> 