<?xml version="1.0" standalone="no"?>
<!DOCTYPE svg PUBLIC "-//W3C//DTD SVG 20010904//EN"
 "http://www.w3.org/TR/2001/REC-SVG-20010904/DTD/svg10.dtd">
<svg version="1.0" xmlns="http://www.w3.org/2000/svg"
 width="406" height="368" viewBox="0 0 406 368"
 preserveAspectRatio="xMidYMid meet">
<g transform="translate(0.000000,331.000000) scale(0.100000,-0.100000)"
fill="#f5f5f5" stroke="none">
<path d="M966 3288 c-32 -51 -56 -170 -55 -279 0 -131 -6 -159 -35 -159 -29 0
-74 -47 -86 -91 -34 -117 33 -339 101 -339 17 0 18 -13 16 -185 l-2 -184 -42
-43 c-33 -34 -47 -61 -69 -129 l-27 -86 -91 -46 c-50 -25 -167 -83 -261 -128
-150 -73 -178 -91 -243 -154 l-74 -70 -35 -135 c-34 -129 -36 -147 -45 -390
-18 -461 -18 -504 -6 -533 8 -21 8 -31 -1 -40 -12 -12 -16 -252 -5 -281 5 -13
34 -24 34 -13 0 1 -7 24 -15 51 -8 27 -15 82 -15 121 0 60 4 78 24 108 22 31
23 37 9 48 -12 11 -14 37 -8 173 3 89 8 253 10 364 4 209 11 260 59 435 22 82
28 92 77 138 46 41 159 119 175 119 6 0 275 128 294 140 34 22 130 69 130 63
0 -3 -8 -20 -19 -37 -20 -34 -48 -172 -37 -183 3 -4 12 -1 19 7 9 10 9 11 0 6
-7 -4 -13 -2 -13 3 0 14 17 14 25 1 8 -13 -14 -42 -26 -34 -5 3 -9 -5 -9 -18
0 -18 2 -20 10 -8 5 8 18 16 30 16 24 1 25 -3 5 -23 -14 -13 -14 -18 -2 -32 8
-9 12 -22 10 -28 -3 -7 0 -13 6 -13 24 0 9 -26 -16 -28 -26 -2 -26 -2 -7 14
16 13 16 15 2 10 -10 -3 -20 -1 -23 4 -4 6 1 10 9 10 9 0 16 4 16 10 0 5 -8 7
-17 4 -15 -5 -16 -4 -3 5 13 10 13 12 0 21 -24 15 -24 -20 0 -128 61 -276 223
-745 373 -1081 l55 -123 -19 -44 -18 -44 32 0 33 0 1 88 c0 81 4 98 57 242 47
126 126 362 126 375 0 1 -13 5 -30 7 -26 4 -40 -6 -40 -28 0 -10 29 -3 33 9 4
7 6 6 6 -4 1 -9 -5 -19 -12 -22 -21 -8 -41 9 -34 28 4 9 0 29 -8 45 -8 16 -15
42 -16 57 0 24 -1 25 -8 8 -8 -20 -8 -20 -14 0 -3 11 -3 -14 1 -55 3 -41 6
-88 7 -105 0 -16 4 -33 8 -36 12 -8 -2 -51 -13 -44 -5 3 -12 -7 -16 -22 -3
-15 -12 -53 -19 -83 -18 -74 -45 -256 -46 -316 l-1 -49 -10 55 c-37 222 -86
391 -195 669 -104 267 -120 316 -157 500 -33 160 -37 205 -18 174 5 -7 13 -9
21 -3 8 4 20 6 28 3 15 -6 63 22 76 44 16 26 49 31 69 11 18 -18 38 -24 37
-10 0 4 -13 17 -29 30 l-29 22 -62 -40 c-65 -42 -94 -48 -148 -29 l-32 11 26
34 c19 25 28 51 31 92 3 31 17 98 31 149 22 76 33 99 67 135 l41 42 3 203 4
203 -25 0 c-46 0 -95 98 -104 210 -6 76 7 127 41 159 33 31 77 14 111 -44 27
-47 31 -89 15 -145 -6 -19 -11 -62 -12 -96 -2 -48 -5 -61 -18 -59 -8 1 -9 0
-2 -2 6 -3 12 -16 12 -29 0 -14 6 -32 14 -40 12 -12 14 2 15 97 1 73 6 122 16
146 8 19 12 40 8 46 -3 6 -1 7 6 3 6 -4 14 0 18 10 5 13 -5 28 -36 55 -26 23
-34 35 -22 32 11 -3 29 -16 42 -29 30 -32 36 -30 41 11 5 40 1 44 -12 13 -8
-21 -9 -21 -10 -3 0 15 -3 17 -9 7 -7 -11 -11 -11 -22 0 -8 8 -28 20 -45 26
l-31 13 5 157 c4 123 9 166 23 200 11 24 19 52 19 61 0 10 9 30 21 45 17 21
18 26 5 26 -9 0 -22 -10 -30 -22z m-202 -1622 c-3 -15 -8 -25 -11 -23 -2 3 -1
17 3 31 3 15 8 25 11 23 2 -3 1 -17 -3 -31z m22 -294 c0 -4 3 -14 7 -22 14
-34 25 -90 17 -85 -5 3 -10 -3 -13 -12 -2 -10 -8 1 -12 25 -4 23 -12 45 -16
48 -11 6 -12 48 -2 57 6 7 17 1 19 -11z m40 -157 c4 -8 1 -21 -5 -29 -9 -11
-8 -15 5 -20 11 -4 15 -14 12 -31 -3 -14 0 -26 8 -29 17 -6 18 -42 3 -52 -6
-3 -16 -1 -22 5 -8 8 -6 11 6 11 9 0 17 4 17 10 0 5 -8 7 -17 4 -12 -4 -14 -3
-6 3 10 7 7 13 -8 27 -12 10 -18 24 -15 33 4 8 1 22 -5 29 -8 10 -8 14 0 14 6
0 11 8 11 18 0 14 -2 15 -10 2 -5 -8 -10 -10 -10 -4 0 25 27 32 36 9z m44
-175 c-24 -15 -37 -11 -16 5 11 8 22 12 25 9 3 -3 -1 -9 -9 -14z m40 -80 c12
-8 30 -48 30 -64 0 -8 -8 -20 -19 -25 -17 -9 -21 -3 -41 60 -19 60 -21 72 -9
80 10 6 16 1 23 -19 5 -15 12 -29 16 -32z m47 -116 c7 -19 -20 -49 -36 -40
-12 8 -15 39 -4 49 12 12 33 7 40 -9z m324 -92 c-9 -25 -9 -24 -10 18 0 36 2
41 10 27 7 -12 7 -27 0 -45z m-306 17 c0 -15 -7 -25 -18 -27 -22 -4 -33 24
-17 43 18 21 35 13 35 -16z m32 -73 c-7 -17 -47 -23 -47 -7 0 5 6 8 13 7 6 0
12 4 13 9 0 6 -7 9 -18 7 -10 -2 -18 2 -18 8 0 6 4 9 9 5 5 -3 13 0 16 6 11
16 39 -16 32 -35z m333 -4 c0 -7 -5 -10 -11 -6 -9 5 -10 -1 -5 -19 3 -15 2
-35 -3 -44 -14 -26 -24 -57 -22 -66 0 -4 -4 -18 -11 -30 -6 -12 -14 -35 -18
-52 -7 -35 -34 -40 -38 -7 -2 16 3 25 20 31 13 6 17 10 10 10 -10 1 -12 10 -7
34 7 30 44 102 45 84 0 -5 5 -5 11 -2 6 5 4 12 -8 20 -15 11 -15 15 -4 29 9
11 10 16 2 16 -6 0 -11 4 -11 9 0 5 11 8 25 7 14 0 25 -7 25 -14z m-320 -21
c0 -9 -41 -23 -49 -16 -3 4 28 20 47 24 1 1 2 -3 2 -8z m16 -38 c4 -10 12 -31
19 -48 7 -16 16 -44 19 -61 6 -29 5 -31 -18 -31 -15 0 -26 4 -26 11 0 6 -10
34 -21 62 -12 29 -19 59 -16 68 8 21 36 20 43 -1z m54 -168 c15 -18 6 -45 -15
-45 -18 0 -30 24 -21 45 7 19 20 19 36 0z m160 -54 c0 -24 -26 -47 -33 -29 -5
16 10 48 23 48 6 0 10 -8 10 -19z m-140 -16 c13 -16 6 -35 -15 -35 -15 0 -28
27 -19 41 8 13 20 11 34 -6z m120 -45 c0 -5 -4 -10 -10 -10 -5 0 -10 5 -10 10
0 6 5 10 10 10 6 0 10 -4 10 -10z m-96 -27 c8 -20 -9 -40 -19 -22 -5 8 -4 10
3 5 7 -4 12 -2 12 3 0 6 -6 11 -14 11 -8 0 -18 5 -21 10 -3 6 3 10 13 10 11 0
23 -8 26 -17z m81 -3 c3 -5 1 -10 -4 -10 -6 0 -11 5 -11 10 0 6 2 10 4 10 3 0
8 -4 11 -10z"/>
<path d="M816 1151 c-4 -7 -5 -15 -2 -18 9 -9 19 4 14 18 -4 11 -6 11 -12 0z"/>
<path d="M926 843 c-11 -11 -6 -23 9 -23 8 0 15 4 15 9 0 13 -16 22 -24 14z"/>
<path d="M942 769 c2 -6 8 -10 13 -10 5 0 11 4 13 10 2 6 -4 11 -13 11 -9 0
-15 -5 -13 -11z"/>
<path d="M1240 470 c0 -5 5 -10 10 -10 6 0 10 5 10 10 0 6 -4 10 -10 10 -5 0
-10 -4 -10 -10z"/>
<path d="M1062 449 c2 -6 8 -10 13 -10 5 0 11 4 13 10 2 6 -4 11 -13 11 -9 0
-15 -5 -13 -11z"/>
<path d="M1226 405 c-3 -8 -1 -15 4 -15 6 0 10 7 10 15 0 8 -2 15 -4 15 -2 0
-6 -7 -10 -15z"/>
<path d="M1085 391 c-3 -5 -1 -12 5 -16 5 -3 10 1 10 9 0 18 -6 21 -15 7z"/>
<path d="M1039 3303 c-1 -5 -3 -18 -4 -29 -1 -12 -5 -27 -9 -33 -13 -20 18 -7
37 17 10 12 25 22 33 22 8 0 12 5 9 10 -3 6 1 10 11 10 12 0 15 -6 12 -23 -4
-20 -1 -23 20 -19 18 4 23 1 20 -9 -3 -8 -11 -14 -18 -14 -23 0 -35 -155 -13
-162 7 -3 16 4 19 14 3 10 10 26 15 36 12 22 2 38 -10 18 -7 -11 -10 -11 -15
0 -3 8 -3 3 0 -10 4 -16 3 -21 -5 -17 -14 9 -14 28 1 63 6 15 10 32 9 36 -1 5
3 6 8 3 5 -3 14 1 20 8 15 18 1 78 -19 84 -13 5 -13 3 -1 -12 8 -9 11 -19 8
-22 -3 -3 -12 3 -19 15 -14 23 -53 28 -61 9 -4 -10 -6 -10 -6 0 -1 6 -6 12
-11 12 -6 0 -10 -6 -9 -12 3 -26 -1 -39 -11 -33 -6 4 -8 15 -5 26 4 10 4 19 1
19 -3 0 -7 -3 -7 -7z"/>
<path d="M1270 3298 c0 -12 48 -10 55 2 3 5 -7 8 -25 7 -16 -1 -30 -5 -30 -9z"/>
<path d="M1440 3303 c0 -6 -13 -9 -30 -7 -16 2 -32 -1 -35 -6 -4 -6 9 -10 29
-10 33 0 55 14 42 27 -3 4 -6 2 -6 -4z"/>
<path d="M1570 3279 c-35 -38 -37 -45 -10 -52 25 -6 17 -33 -11 -40 -19 -5
-19 -6 -2 -41 13 -27 21 -35 35 -30 10 3 18 0 18 -6 0 -6 -4 -9 -9 -6 -4 3
-17 -2 -27 -10 -10 -9 -13 -12 -5 -8 9 5 12 3 7 -4 -4 -7 -18 -12 -32 -12 -31
0 -31 -16 1 -22 18 -4 29 1 40 18 9 13 21 24 27 24 6 0 3 -9 -7 -20 -12 -14
-14 -20 -5 -20 7 0 21 10 31 21 12 14 26 20 40 16 16 -4 19 -2 14 11 -3 9 -3
13 1 10 4 -4 15 -3 25 2 12 7 20 7 24 0 3 -5 -1 -10 -9 -10 -8 0 -18 -5 -22
-12 -5 -8 -2 -9 12 -4 39 16 54 18 54 7 0 -7 -6 -9 -12 -5 -10 5 -10 4 0 -7
10 -11 16 -10 34 9 17 16 19 22 8 22 -13 0 -13 2 0 11 13 9 13 10 0 6 -8 -2
-14 -10 -12 -16 1 -6 -2 -11 -6 -11 -13 0 -67 48 -67 59 0 5 -4 13 -9 18 -5 4
-6 3 -3 -3 4 -7 -2 -14 -13 -17 -11 -3 -20 -1 -20 3 0 11 15 20 42 25 12 3 34
17 50 31 42 41 103 38 63 -3 -8 -8 -12 -19 -9 -25 4 -6 3 -9 -2 -6 -5 3 -22
-7 -39 -23 -22 -21 -26 -29 -14 -29 9 0 20 7 23 16 5 13 9 14 21 4 9 -7 15 -8
15 -2 0 5 8 12 18 16 9 3 24 9 32 13 13 5 13 4 1 -11 -12 -14 -12 -16 3 -10
11 4 14 13 10 29 -4 17 0 24 15 28 12 3 21 1 21 -4 0 -5 -4 -9 -9 -9 -5 0 -8
-8 -6 -17 1 -10 -4 -30 -12 -45 -14 -29 -29 -39 -19 -13 5 13 3 13 -18 0 -12
-8 -25 -13 -28 -10 -3 3 -8 -3 -11 -15 -3 -11 -1 -20 5 -20 5 0 6 -5 3 -10 -4
-6 -11 -8 -16 -5 -5 4 -9 1 -9 -5 0 -7 -9 -9 -22 -5 -18 5 -20 4 -8 -4 11 -8
4 -10 -30 -10 -40 1 -42 2 -15 8 22 6 14 8 -33 8 -51 0 -65 -4 -73 -19 -5 -10
-14 -18 -20 -18 -6 0 -7 5 -3 11 4 6 -3 5 -17 -2 l-24 -14 22 -3 c12 -2 33 4
47 14 14 9 26 12 26 8 0 -5 4 -4 8 3 5 8 14 8 32 -3 l25 -15 -25 6 c-19 5 -22
4 -10 -4 20 -14 53 -14 44 0 -4 8 1 9 17 3 23 -7 43 -9 84 -5 26 2 61 29 51
38 -4 4 -12 0 -17 -10 -6 -9 -15 -17 -21 -17 -7 0 -6 5 2 15 7 8 8 15 3 15 -5
0 -9 10 -10 21 -1 12 1 19 4 15 3 -3 12 -1 20 5 7 6 13 8 13 5 0 -4 13 2 29
13 16 12 34 21 41 21 6 0 8 5 5 11 -4 6 -13 8 -20 5 -10 -3 -12 2 -8 17 10 44
8 97 -4 97 -6 0 -10 -9 -8 -19 3 -14 -4 -20 -28 -25 -24 -5 -28 -9 -18 -15 12
-8 12 -11 -1 -25 -15 -14 -28 -12 -28 6 0 4 10 18 21 29 17 17 19 23 8 31 -10
6 -7 7 9 3 17 -5 22 -2 22 12 0 36 -42 58 -53 29 -4 -10 0 -12 14 -9 10 3 19
0 19 -6 0 -6 -11 -11 -24 -11 -13 0 -26 -6 -29 -12 -2 -7 -8 -10 -12 -6 -4 4
-3 13 1 20 15 24 12 38 -8 38 -16 0 -18 -3 -9 -13 12 -15 -3 -37 -26 -37 -7 0
-13 -5 -13 -11 0 -5 6 -7 13 -3 9 6 8 3 -1 -8 -8 -9 -21 -14 -30 -11 -15 4
-15 3 -2 -6 8 -6 11 -11 5 -12 -30 -4 -41 -3 -45 3 -10 13 -30 -8 -32 -34 -2
-21 -10 -28 -42 -38 -31 -9 -40 -9 -47 2 -6 9 -1 15 13 21 14 5 19 13 15 27
-4 15 0 20 14 20 11 0 16 5 14 13 -3 6 5 17 17 22 24 10 38 45 19 45 -6 0 -11
-7 -11 -15 0 -19 -7 -19 -26 0 -9 8 -12 19 -9 25 13 20 -6 9 -35 -21z m34 -7
c3 -5 3 -18 0 -30 -5 -18 -9 -19 -30 -10 -23 11 -23 12 -8 30 19 20 30 23 38
10z m-29 -92 c-3 -5 -12 -10 -18 -10 -7 0 -6 4 3 10 19 12 23 12 15 0z m115
-40 c-12 -8 -12 -10 -1 -10 22 0 4 -13 -22 -15 -12 -1 -30 -5 -39 -10 -13 -5
-18 -3 -18 9 0 10 9 16 23 16 12 0 29 5 37 10 8 5 20 10 25 10 6 0 3 -5 -5
-10z m111 -100 c-13 -11 -28 -20 -35 -20 -6 0 3 9 19 20 38 25 47 25 16 0z"/>
<path d="M1716 3303 c-3 -4 -6 -15 -6 -27 0 -20 0 -20 16 0 8 10 13 13 9 7
-10 -20 3 -15 14 5 7 14 6 18 -9 19 -10 1 -21 -1 -24 -4z"/>
<path d="M1952 3285 c26 -12 69 -42 94 -64 26 -23 53 -41 60 -41 7 0 25 -17
39 -37 28 -42 34 -106 12 -138 -8 -11 -17 -29 -21 -39 -6 -16 -4 -17 9 -6 69
57 53 174 -32 237 -21 15 -60 47 -87 70 -38 34 -56 43 -85 42 l-36 0 47 -24z"/>
<path d="M1345 3289 c6 -17 -28 -29 -84 -29 -20 0 -23 -2 -11 -10 24 -15 63
-11 90 10 21 16 23 21 12 32 -11 11 -12 10 -7 -3z"/>
<path d="M1478 3293 c-10 -2 -18 -8 -18 -13 0 -5 -7 -10 -17 -12 -14 -3 -14
-5 2 -18 11 -9 16 -10 11 -2 -4 7 -1 12 9 12 9 0 13 4 10 10 -3 6 1 7 10 4 13
-5 13 -9 3 -23 -10 -13 -10 -14 2 -4 15 14 25 54 12 52 -4 -1 -15 -3 -24 -6z"/>
<path d="M1669 3263 c-7 -16 -15 -32 -17 -36 -2 -5 7 2 20 15 13 13 24 29 24
36 1 21 -12 13 -27 -15z"/>
<path d="M1213 3256 c15 -22 14 -23 -1 -22 -9 0 -18 -7 -20 -16 -2 -10 2 -18
8 -18 7 0 10 6 7 13 -4 11 3 12 34 7 l39 -7 -34 33 c-41 40 -55 44 -33 10z"/>
<path d="M1528 3273 c7 -3 16 -2 19 1 4 3 -2 6 -13 5 -11 0 -14 -3 -6 -6z"/>
<path d="M1087 3245 c-8 -8 -17 -11 -20 -8 -4 3 -5 -4 -2 -15 2 -11 -4 -27
-12 -34 -14 -11 -16 -10 -11 10 4 12 2 22 -3 22 -5 0 -9 -14 -9 -30 0 -27 2
-29 19 -21 10 6 28 29 40 51 22 42 21 49 -2 25z"/>
<path d="M1400 3250 c13 -8 11 -11 -7 -16 -13 -4 -23 -11 -23 -18 0 -6 -4 -6
-9 3 -5 8 -11 9 -15 3 -10 -16 13 -25 29 -12 8 7 22 10 30 6 9 -3 13 -2 10 4
-3 6 2 10 11 10 16 0 16 1 -2 15 -10 8 -23 14 -29 15 -5 0 -3 -5 5 -10z"/>
<path d="M1348 3243 c6 -2 18 -2 25 0 6 3 1 5 -13 5 -14 0 -19 -2 -12 -5z"/>
<path d="M1690 3234 c0 -14 3 -15 18 -3 9 7 19 15 21 16 2 2 -5 3 -17 3 -14 0
-22 -6 -22 -16z"/>
<path d="M1920 3235 c0 -17 16 -20 25 -5 3 5 12 7 20 3 8 -3 15 0 15 6 0 6
-13 11 -30 11 -20 0 -30 -5 -30 -15z"/>
<path d="M1097 3207 c-8 -13 -21 -42 -28 -65 -7 -23 -16 -42 -21 -42 -5 0 -6
-10 -3 -22 5 -19 4 -20 -5 -8 -9 12 -10 10 -8 -10 2 -17 -1 -24 -11 -22 -10 2
-12 -4 -7 -24 6 -24 5 -26 -8 -15 -14 12 -16 10 -16 -10 0 -17 3 -20 9 -11 4
8 12 14 16 14 4 0 12 -6 16 -14 6 -8 8 -1 7 22 -2 23 1 34 9 33 7 -2 15 13 18
35 9 55 26 93 38 85 5 -3 7 -1 3 5 -3 6 -1 23 4 38 14 35 7 41 -13 11z"/>
<path d="M1297 3212 c1 -8 3 -19 3 -24 0 -6 3 -8 6 -5 4 3 16 2 26 -4 16 -9
19 -8 15 3 -2 7 -10 12 -16 11 -6 -2 -11 4 -11 13 0 8 -4 13 -9 10 -5 -4 -11
-3 -14 1 -2 5 -2 2 0 -5z"/>
<path d="M1460 3221 c0 -5 14 -8 30 -6 33 4 35 2 20 -26 -8 -14 -7 -19 2 -19
9 0 9 -3 -2 -10 -13 -8 -12 -10 4 -10 13 0 16 5 12 16 -4 10 1 25 10 35 14 15
14 19 3 20 -8 1 -29 3 -46 5 -18 2 -33 0 -33 -5z"/>
<path d="M1787 3213 c4 -10 2 -14 -4 -10 -10 7 -70 -49 -62 -58 8 -8 79 55 79
71 0 8 -4 14 -10 14 -5 0 -6 -7 -3 -17z"/>
<path d="M1996 3216 c3 -8 -6 -25 -20 -39 -15 -15 -26 -38 -26 -52 0 -23 2
-25 21 -15 19 11 20 12 3 24 -15 11 -15 14 -3 22 17 10 49 54 49 66 0 5 -7 8
-15 8 -8 0 -12 -6 -9 -14z"/>
<path d="M981 3198 c-7 -13 -10 -20 -6 -16 12 11 54 -63 47 -81 -5 -14 -3 -14
10 -3 19 15 17 47 -2 47 -7 0 -18 17 -24 38 -11 37 -11 38 -25 15z"/>
<path d="M1215 3190 c-18 -20 -41 -28 -30 -11 10 18 -13 21 -26 4 -9 -10 -9
-14 -2 -10 13 8 40 -30 34 -48 -9 -27 -9 -65 -1 -70 16 -10 11 -23 -7 -21 -10
2 -22 -2 -26 -8 -6 -7 -7 -6 -4 4 2 8 10 14 16 13 13 -3 15 13 2 21 -5 3 -12
-2 -15 -11 -6 -15 -8 -15 -16 -3 -13 21 -12 3 1 -21 5 -11 14 -17 20 -14 5 4
9 2 9 -3 0 -5 7 -9 15 -9 16 0 17 2 19 93 0 33 6 67 12 75 30 38 29 52 -1 19z"/>
<path d="M1945 3200 c-3 -5 -1 -10 4 -10 6 0 11 5 11 10 0 6 -2 10 -4 10 -3 0
-8 -4 -11 -10z"/>
<path d="M2030 3186 c0 -9 5 -16 10 -16 6 0 10 4 10 9 0 6 -4 13 -10 16 -5 3
-10 -1 -10 -9z"/>
<path d="M1615 3180 c-3 -5 -2 -10 4 -10 5 0 13 5 16 10 3 6 2 10 -4 10 -5 0
-13 -4 -16 -10z"/>
<path d="M1280 3168 c0 -22 17 -42 24 -29 4 6 0 18 -8 27 -12 12 -16 12 -16 2z"/>
<path d="M1217 3154 c7 -3 9 -13 6 -22 -4 -15 -3 -15 6 -2 8 12 11 12 11 1 0
-7 6 -11 15 -7 9 3 15 0 15 -8 0 -8 7 -13 16 -12 9 0 19 -5 22 -13 3 -9 0 -11
-8 -6 -9 6 -11 4 -5 -4 4 -7 16 -10 28 -7 24 6 57 -9 75 -36 7 -10 19 -18 25
-18 8 0 9 2 1 8 -36 24 -38 88 -3 79 21 -6 35 8 19 18 -6 4 -21 0 -33 -8 -21
-13 -26 -13 -50 5 -15 11 -27 15 -27 9 0 -7 10 -15 22 -20 27 -10 10 -22 -20
-14 -12 3 -19 10 -15 16 3 6 1 7 -5 3 -6 -3 -20 4 -31 16 -15 15 -21 18 -21 7
-1 -11 -4 -10 -14 4 -7 9 -19 17 -27 16 -9 0 -10 -2 -2 -5z m163 -70 c0 -8 -5
-12 -10 -9 -6 4 -8 11 -5 16 9 14 15 11 15 -7z"/>
<path d="M1995 3150 c-19 -8 -19 -9 1 -9 22 -1 40 -26 25 -35 -4 -3 -19 -7
-33 -10 -34 -6 -88 -35 -68 -36 8 -1 2 -7 -14 -15 -27 -12 -49 -51 -23 -42 7
3 11 9 10 15 -2 6 3 9 11 6 8 -3 20 1 27 9 10 10 21 12 37 6 20 -8 25 -5 37
24 12 27 21 24 16 -5 0 -5 4 -8 9 -8 6 0 10 21 10 46 0 40 2 45 18 39 13 -5
14 -4 5 6 -16 16 -42 19 -68 9z m-20 -70 c-3 -5 -2 -10 4 -10 5 0 12 6 14 13
4 7 6 6 6 -4 1 -18 -25 -33 -40 -23 -6 3 -5 11 2 20 13 16 23 19 14 4z"/>
<path d="M2086 3134 c-3 -9 -2 -12 5 -8 6 3 21 -4 35 -17 30 -28 32 -18 2 16
-25 29 -34 31 -42 9z"/>
<path d="M981 3125 c-5 -37 -4 -73 4 -92 6 -16 8 -16 16 6 6 15 6 27 0 30 -5
4 -11 22 -14 41 -2 19 -5 26 -6 15z"/>
<path d="M1089 3128 c0 -7 -2 -23 -5 -35 -2 -12 0 -24 4 -27 4 -2 8 14 10 35
1 21 0 39 -3 39 -3 0 -5 -6 -6 -12z"/>
<path d="M955 3120 c3 -5 8 -10 11 -10 2 0 4 5 4 10 0 6 -5 10 -11 10 -5 0 -7
-4 -4 -10z"/>
<path d="M1924 3117 c-3 -9 -11 -14 -18 -11 -7 3 -19 -3 -27 -12 -12 -16 -12
-17 1 -9 8 5 23 8 33 7 17 -3 35 23 23 35 -3 3 -8 -1 -12 -10z"/>
<path d="M1460 3109 c0 -13 18 -20 25 -10 3 6 12 8 19 5 8 -3 16 -2 19 3 3 5
-10 9 -29 9 -19 0 -34 -3 -34 -7z"/>
<path d="M950 3084 c0 -8 5 -12 10 -9 6 3 10 10 10 16 0 5 -4 9 -10 9 -5 0
-10 -7 -10 -16z"/>
<path d="M1250 3095 c0 -4 7 -13 15 -22 8 -8 13 -19 9 -24 -3 -5 0 -8 8 -7 7
2 12 -3 10 -10 -1 -8 2 -11 8 -7 5 3 20 8 31 10 12 3 24 7 28 10 3 3 -9 3 -28
0 -18 -3 -31 -2 -28 2 2 5 -9 18 -24 31 -16 13 -29 21 -29 17z"/>
<path d="M2080 3062 c-20 -20 -21 -23 -5 -15 11 6 30 9 43 7 26 -5 30 12 5 24
-13 6 -25 2 -43 -16z"/>
<path d="M1880 3059 c0 -5 5 -7 10 -4 6 3 10 8 10 11 0 2 -4 4 -10 4 -5 0 -10
-5 -10 -11z"/>
<path d="M1101 3042 c-7 -14 -5 -29 9 -55 15 -28 17 -42 10 -61 -6 -16 -6 -27
1 -31 5 -4 9 -3 8 2 -1 4 1 20 5 35 7 23 11 26 26 18 26 -14 29 -13 25 8 -2 9
-4 20 -4 25 -1 4 -6 7 -12 7 -5 0 -8 -4 -4 -9 3 -5 1 -12 -5 -16 -5 -3 -10 -1
-10 5 0 6 -4 9 -9 5 -6 -3 -15 3 -20 14 -17 31 -13 36 11 15 l22 -19 -22 31
c-12 17 -19 34 -15 38 3 3 3 6 0 6 -3 0 -11 -8 -16 -18z"/>
<path d="M1240 3049 c0 -5 5 -7 10 -4 6 3 10 8 10 11 0 2 -4 4 -10 4 -5 0 -10
-5 -10 -11z"/>
<path d="M1476 3023 c2 -52 3 -53 15 -53 8 0 7 5 -1 15 -7 9 -11 18 -8 20 8 8
69 -26 75 -42 5 -12 7 -12 14 -1 7 11 11 10 19 -2 7 -11 12 -12 21 -3 6 6 19
9 28 6 10 -3 12 -2 5 4 -6 4 -10 16 -8 25 1 10 -3 21 -8 25 -7 4 -9 -2 -5 -16
5 -19 3 -20 -11 -9 -12 10 -14 10 -8 0 9 -16 -19 -11 -54 8 -24 14 -30 16 -49
19 -5 0 -8 8 -7 17 0 9 -4 19 -9 21 -7 2 -10 -12 -9 -34z"/>
<path d="M1070 3036 c0 -8 -4 -16 -8 -18 -5 -1 -6 -13 -3 -26 l6 -22 13 21 c8
12 9 18 3 14 -14 -8 -14 1 -1 26 7 13 7 19 0 19 -5 0 -10 -6 -10 -14z"/>
<path d="M1437 3031 c3 -11 1 -27 -5 -34 -8 -10 -6 -13 9 -13 16 0 19 5 14 26
-4 14 -10 29 -15 34 -5 5 -6 0 -3 -13z"/>
<path d="M956 3025 c-3 -8 -1 -15 4 -15 6 0 10 7 10 15 0 8 -2 15 -4 15 -2 0
-6 -7 -10 -15z"/>
<path d="M1390 3010 c6 -11 13 -20 16 -20 2 0 0 9 -6 20 -6 11 -13 20 -16 20
-2 0 0 -9 6 -20z"/>
<path d="M1850 3000 c0 -11 -4 -20 -10 -20 -5 0 -6 8 -3 18 5 14 4 15 -8 6 -8
-7 -44 -11 -87 -10 -40 2 -75 -1 -78 -6 -3 -4 9 -8 26 -8 17 0 29 -4 26 -8 -6
-10 100 -8 130 2 19 6 29 46 12 46 -4 0 -8 -9 -8 -20z"/>
<path d="M1935 3013 c-39 -10 -36 -20 7 -20 24 0 37 2 30 4 -6 3 -10 9 -6 14
5 9 2 10 -31 2z"/>
<path d="M2102 3008 c-7 -7 -12 -21 -12 -31 0 -10 -16 -35 -35 -54 -19 -19
-35 -42 -35 -50 0 -8 -9 -17 -20 -20 -11 -3 -20 -12 -20 -19 0 -8 -15 -30 -34
-50 -40 -42 -97 -155 -103 -204 -4 -31 1 -41 41 -84 25 -27 43 -53 40 -57 -10
-17 -35 -9 -44 14 -8 20 -9 19 -8 -8 3 -43 -9 -59 -28 -40 -25 25 -32 18 -44
-42 -15 -68 -127 -286 -142 -276 -7 3 -8 1 -4 -6 9 -14 -26 -59 -62 -81 -28
-16 -143 -22 -158 -7 -12 12 -36 8 -28 -5 4 -7 3 -8 -5 -4 -6 4 -9 12 -6 17 4
5 -3 9 -14 9 -10 0 -26 3 -35 6 -9 3 -16 1 -16 -6 0 -6 6 -8 13 -5 6 4 3 -1
-8 -10 -11 -9 -28 -14 -38 -11 -11 2 -16 2 -13 -1 3 -3 -4 -17 -14 -31 -11
-13 -20 -31 -20 -38 0 -8 -3 -14 -7 -14 -5 0 -6 -21 -5 -47 12 -167 10 -218
-12 -253 -11 -19 -20 -36 -18 -37 1 -2 2 -6 2 -9 0 -3 -7 2 -16 11 -32 31 -63
47 -83 40 -15 -5 -37 11 -98 73 -114 114 -119 122 -127 173 -6 38 -3 53 15 83
11 20 25 36 30 36 5 0 9 9 9 20 0 30 -12 24 -50 -27 -29 -38 -35 -55 -34 -93
0 -53 15 -77 108 -183 70 -80 111 -107 160 -107 20 0 36 -4 36 -10 0 -5 10
-18 22 -30 12 -11 18 -23 14 -27 -4 -4 -11 -1 -15 6 -6 9 -11 1 -16 -27 -7
-43 3 -108 37 -244 19 -77 20 -92 8 -127 -21 -65 3 -115 48 -96 14 7 14 9 2
12 -42 10 -47 99 -6 108 72 16 149 14 206 -5 33 -11 67 -20 75 -20 10 0 13 -5
9 -12 -4 -6 -3 -8 3 -5 6 4 29 -1 51 -10 54 -21 121 -11 152 22 29 31 5 35
-28 5 -12 -11 -33 -20 -48 -20 -26 0 -27 1 -9 14 11 8 24 12 29 9 5 -4 6 -1 2
6 -4 6 -12 9 -17 5 -5 -3 -14 8 -20 26 -7 18 -24 37 -43 47 -17 9 -46 29 -64
44 -18 16 -38 29 -45 29 -20 1 -113 49 -95 49 9 1 28 -3 42 -9 14 -5 26 -6 26
-1 0 21 -126 47 -132 27 -2 -5 5 -10 15 -12 11 -1 21 -5 25 -8 7 -8 -62 -8
-82 0 -23 9 -20 27 4 21 13 -3 20 0 21 9 1 8 2 19 3 25 0 6 10 17 20 25 18 13
18 14 2 14 -9 0 -25 -14 -34 -30 -11 -20 -24 -29 -37 -28 -17 3 -19 -2 -17
-42 2 -36 -3 -51 -22 -75 l-25 -30 -1 63 c0 46 -4 62 -14 62 -10 0 -16 19 -21
60 -6 56 -5 63 24 107 17 25 31 54 31 64 0 9 7 20 16 23 13 5 15 27 12 165 -4
219 -30 201 283 201 l249 0 16 -26 c10 -14 18 -47 18 -75 1 -60 2 -61 128 -93
179 -47 359 -141 428 -223 39 -48 84 -143 145 -307 26 -71 60 -157 75 -190 34
-77 64 -190 57 -211 -4 -9 7 -33 28 -61 19 -25 38 -58 41 -72 6 -23 70 -170
134 -307 11 -22 22 -58 25 -80 4 -22 7 -47 9 -55 1 -8 9 -29 18 -45 9 -17 19
-47 23 -68 4 -20 18 -63 31 -94 19 -46 24 -52 24 -30 0 33 -32 153 -54 199 -9
19 -19 45 -21 58 -3 14 -8 40 -11 59 -6 31 -97 244 -114 266 -4 6 -13 28 -20
50 -18 55 -55 129 -74 144 -10 8 -16 30 -16 55 -1 43 -30 132 -124 376 -136
355 -173 397 -471 526 -21 9 -71 25 -110 35 -109 27 -125 35 -125 63 0 48 -13
86 -38 111 -22 23 -32 25 -108 25 -46 0 -84 4 -84 9 0 5 4 11 8 13 28 11 156
248 176 324 7 29 18 49 27 49 50 2 109 35 109 61 0 7 -16 30 -36 51 -47 50
-57 70 -50 99 15 60 69 154 120 208 31 33 56 62 56 65 0 3 14 22 30 41 42 49
44 52 57 83 10 22 10 27 0 27 -7 0 -18 -5 -25 -12z m-759 -1698 c50 0 157 -41
223 -87 75 -51 84 -59 84 -85 0 -14 -8 -18 -40 -18 -37 0 -53 4 -128 37 -18 8
-66 15 -107 16 -40 1 -77 6 -82 10 -4 5 -8 40 -9 77 -1 63 1 68 17 59 10 -5
29 -9 42 -9z m-73 -100 c0 -38 -4 -50 -15 -50 -8 0 -15 5 -15 10 0 6 5 10 10
10 6 0 10 4 10 10 0 5 -7 7 -15 4 -8 -4 -15 -2 -15 4 0 5 7 12 15 16 8 3 15
15 15 26 0 11 2 20 5 20 3 0 5 -22 5 -50z"/>
<path d="M1235 3000 c-3 -5 -1 -10 4 -10 6 0 11 5 11 10 0 6 -2 10 -4 10 -3 0
-8 -4 -11 -10z"/>
<path d="M1296 2994 c-8 -22 -8 -24 8 -24 21 0 28 16 12 29 -11 9 -15 8 -20
-5z"/>
<path d="M1967 2958 c-20 -26 -31 -47 -24 -45 11 2 11 -5 4 -47 -1 -5 4 -11
12 -14 10 -3 13 1 9 16 -4 15 -2 19 8 15 8 -3 14 0 14 6 0 7 -7 14 -15 17 -11
5 -12 10 -2 27 7 12 18 27 25 35 7 7 9 19 5 25 -4 7 1 6 10 -2 15 -11 17 -11
17 1 0 29 -28 14 -63 -34z"/>
<path d="M1080 2983 c0 -14 19 -38 25 -32 8 8 -5 39 -16 39 -5 0 -9 -3 -9 -7z"/>
<path d="M1900 2973 c8 -3 18 -10 21 -16 4 -5 13 -6 20 -2 9 6 8 10 -7 16 -10
4 -26 8 -34 8 -13 -1 -13 -1 0 -6z"/>
<path d="M1436 2957 c3 -10 9 -15 12 -12 3 3 0 11 -7 18 -10 9 -11 8 -5 -6z"/>
<path d="M1660 2966 c0 -2 9 -6 20 -9 11 -3 20 -1 20 4 0 5 -9 9 -20 9 -11 0
-20 -2 -20 -4z"/>
<path d="M2010 2966 c0 -2 7 -9 15 -16 9 -7 15 -8 15 -2 0 5 -7 12 -15 16 -8
3 -15 4 -15 2z"/>
<path d="M955 2950 c3 -5 8 -10 11 -10 2 0 4 5 4 10 0 6 -5 10 -11 10 -5 0 -7
-4 -4 -10z"/>
<path d="M2001 2934 c0 -11 3 -14 6 -6 3 7 2 16 -1 19 -3 4 -6 -2 -5 -13z"/>
<path d="M1310 2910 l-25 -6 26 -5 c14 -3 34 -3 44 1 18 6 18 7 -1 11 -10 3
-30 3 -44 -1z"/>
<path d="M1194 2875 c3 -21 16 -31 16 -12 0 9 -4 18 -9 21 -5 4 -8 -1 -7 -9z"/>
<path d="M1127 2849 c4 -13 8 -18 11 -10 2 7 -1 18 -6 23 -8 8 -9 4 -5 -13z"/>
<path d="M1780 2850 c0 -6 7 -10 15 -10 8 0 15 2 15 4 0 2 -7 6 -15 10 -8 3
-15 1 -15 -4z"/>
<path d="M1090 2840 c0 -5 5 -10 10 -10 6 0 10 5 10 10 0 6 -4 10 -10 10 -5 0
-10 -4 -10 -10z"/>
<path d="M1826 2837 c-16 -12 -16 -13 2 -14 10 -1 19 5 19 13 0 17 1 17 -21 1z"/>
<path d="M1933 2838 c3 -9 -2 -26 -11 -39 l-16 -24 22 19 c24 21 28 41 10 52
-7 5 -9 2 -5 -8z"/>
<path d="M1340 2829 c0 -6 4 -8 9 -4 5 3 13 0 17 -6 4 -8 9 -7 15 2 6 10 9 11
9 2 0 -7 8 -13 17 -13 12 0 14 3 6 11 -14 14 -73 21 -73 8z"/>
<path d="M956 2818 c3 -5 10 -6 15 -3 13 9 11 12 -6 12 -8 0 -12 -4 -9 -9z"/>
<path d="M1430 2814 c0 -12 4 -12 20 -4 11 6 20 12 20 13 0 2 -9 3 -20 4 -12
1 -20 -4 -20 -13z"/>
<path d="M1875 2798 c-2 -7 -6 -35 -10 -62 -4 -27 -9 -56 -11 -65 -3 -9 2 -4
10 10 16 27 33 129 22 129 -4 0 -8 -6 -11 -12z"/>
<path d="M863 2794 c3 -3 -6 -27 -19 -54 -13 -26 -24 -64 -24 -84 0 -37 33
-116 49 -116 5 0 11 -9 14 -20 3 -12 14 -20 26 -20 30 0 26 27 -4 34 -14 4
-30 17 -34 29 -5 13 -16 29 -25 36 -28 23 -13 109 31 180 1 2 14 -4 28 -13 29
-19 34 -7 7 17 -17 15 -64 26 -49 11z"/>
<path d="M1262 2785 c10 -11 48 -14 48 -4 0 5 -12 9 -27 9 -14 0 -24 -2 -21
-5z"/>
<path d="M1510 2770 c0 -5 5 -10 11 -10 5 0 7 5 4 10 -3 6 -8 10 -11 10 -2 0
-4 -4 -4 -10z"/>
<path d="M1396 2738 c3 -5 10 -6 15 -3 13 9 11 12 -6 12 -8 0 -12 -4 -9 -9z"/>
<path d="M916 2725 c-3 -8 -1 -15 4 -15 6 0 10 7 10 15 0 8 -2 15 -4 15 -2 0
-6 -7 -10 -15z"/>
<path d="M1270 2720 c0 -5 5 -10 11 -10 5 0 7 5 4 10 -3 6 -8 10 -11 10 -2 0
-4 -4 -4 -10z"/>
<path d="M1200 2706 c-45 -10 -51 -13 -31 -19 13 -3 33 -1 43 4 11 6 26 8 34
5 8 -3 14 1 14 9 0 8 -1 14 -2 14 -2 -1 -28 -7 -58 -13z"/>
<path d="M1353 2700 c-28 -12 -30 -24 -3 -15 11 3 20 2 20 -3 0 -6 11 -13 25
-16 43 -11 88 -106 50 -106 -9 0 -19 -9 -23 -21 l-8 -20 -24 20 c-24 20 -25
21 -3 18 12 -1 22 1 22 6 1 4 -1 6 -2 5 -2 -2 -10 2 -18 9 -8 6 -39 16 -69 22
-30 6 -68 14 -84 18 -18 4 -27 2 -23 -4 4 -6 30 -13 59 -17 86 -11 96 -15 96
-40 0 -15 -7 -22 -20 -23 -15 -2 -17 1 -9 11 9 10 8 15 -5 20 -24 9 -76 7 -70
-3 3 -4 17 -6 31 -3 19 3 25 0 25 -12 0 -13 -4 -15 -19 -7 -15 8 -20 7 -25 -5
-3 -9 -15 -14 -28 -12 -25 4 -37 28 -14 28 9 0 16 -4 16 -10 0 -5 5 -10 10
-10 20 0 -15 40 -35 41 -20 0 -20 0 0 9 17 7 15 9 -12 9 -41 1 -47 -23 -18
-64 13 -17 21 -41 19 -55 -3 -23 -2 -22 13 6 12 24 25 33 57 40 46 10 106 7
106 -6 0 -13 -33 -21 -44 -10 -5 5 -14 10 -20 10 -6 0 -5 -5 2 -12 9 -9 5 -17
-16 -37 -15 -14 -30 -25 -34 -24 -3 1 -11 -4 -18 -12 -9 -11 -8 -14 9 -12 12
1 21 5 21 9 0 8 99 68 113 68 5 0 5 -5 1 -11 -5 -8 -1 -8 14 0 15 8 21 7 26
-4 3 -8 0 -17 -6 -21 -7 -5 -8 -2 -3 6 5 7 -13 -3 -40 -23 -26 -20 -52 -37
-58 -37 -6 0 -7 -3 -4 -6 4 -4 24 5 46 19 l40 27 -21 -38 c-12 -20 -35 -49
-50 -65 -33 -32 -35 -47 -8 -78 l19 -24 -12 33 c-11 31 -10 35 13 52 14 11 31
20 38 20 16 0 35 18 50 47 19 35 14 37 -14 4 -28 -33 -47 -41 -37 -15 10 27
51 66 62 60 5 -4 13 -1 17 5 5 8 3 9 -6 4 -10 -6 -12 -4 -7 8 4 10 2 17 -5 17
-7 0 -7 4 1 14 9 10 7 17 -6 27 -14 12 -16 12 -11 -1 4 -11 0 -16 -13 -17 -10
-1 -19 2 -19 8 0 5 5 9 10 9 6 0 10 7 10 15 0 8 6 12 14 9 8 -3 16 4 19 17 5
19 11 21 52 17 28 -4 55 -14 69 -27 17 -16 25 -18 34 -9 28 28 219 11 207 -19
-2 -8 0 -11 5 -8 20 12 9 34 -22 44 -43 14 -107 17 -135 7 -13 -4 -23 -3 -23
2 0 9 37 25 53 23 5 -1 26 -3 47 -4 21 -1 42 -6 46 -10 12 -12 36 -8 31 6 -2
6 -9 11 -15 10 -6 -1 -30 4 -55 11 -29 9 -50 10 -61 4 -10 -5 -23 -7 -31 -5
-17 7 -58 -31 -49 -45 4 -6 1 -9 -5 -7 -7 3 -13 9 -14 14 -2 11 -66 45 -82 44
-25 -3 -36 2 -29 14 5 7 0 6 -11 -3 -17 -14 -18 -13 -12 10 5 22 0 28 -44 49
-34 17 -45 27 -37 33 17 10 -1 9 -29 -2z"/>
<path d="M1085 2690 c3 -5 8 -10 11 -10 2 0 4 5 4 10 0 6 -5 10 -11 10 -5 0
-7 -4 -4 -10z"/>
<path d="M1117 2674 c7 -18 34 -26 49 -13 10 8 11 6 1 -15 -7 -14 -16 -26 -20
-26 -5 0 -5 5 -1 12 5 7 3 8 -5 3 -8 -4 -25 4 -43 21 l-31 29 19 -30 c10 -16
23 -33 28 -37 6 -4 13 -35 17 -70 6 -52 37 -162 39 -135 0 4 6 2 14 -5 12 -11
11 -14 -3 -20 -22 -9 35 -10 69 -1 22 6 21 7 -15 17 -26 8 -47 23 -62 45 -43
63 -43 150 0 152 12 0 16 3 10 6 -20 7 -15 41 7 53 14 8 20 8 20 0 0 -6 4 -8
10 -5 31 19 67 11 183 -39 38 -16 38 -16 27 4 -6 11 -24 27 -40 35 -37 19
-148 35 -176 25 -11 -5 -39 -5 -61 -1 -32 6 -40 5 -36 -5z"/>
<path d="M850 2658 c0 -21 40 -73 82 -106 15 -12 16 -11 5 17 -8 23 -8 36 3
58 23 45 23 46 11 39 -6 -4 -11 -2 -11 5 0 7 -6 4 -14 -7 -8 -10 -11 -21 -6
-24 5 -3 2 -13 -5 -23 -13 -18 -14 -18 -26 5 -7 13 -11 24 -10 26 1 1 -5 10
-14 18 -13 14 -15 13 -15 -8z"/>
<path d="M1040 2673 c0 -6 8 -17 18 -24 16 -13 16 -13 2 6 -8 11 -16 22 -17
24 -2 2 -3 0 -3 -6z"/>
<path d="M1084 2595 c17 -41 35 -73 36 -63 0 11 -39 98 -45 98 -3 0 1 -16 9
-35z"/>
<path d="M1466 2533 c-9 -23 8 -37 31 -24 17 10 17 10 1 11 -10 0 -18 4 -18 9
0 4 15 8 33 7 30 -1 32 -3 38 -46 5 -42 6 -43 11 -15 3 17 3 -17 0 -75 -3 -58
-6 -121 -6 -140 -1 -28 -6 -35 -26 -41 -14 -4 -18 -7 -8 -8 37 -2 48 10 48 58
0 25 3 56 6 68 l6 23 21 -26 c26 -33 75 -54 124 -53 34 1 32 2 -17 10 -30 5
-64 16 -76 23 -44 30 -69 129 -44 176 8 15 5 23 -16 39 -33 26 -99 29 -108 4z"/>
<path d="M1611 2498 c-26 -41 -20 -67 17 -79 18 -6 36 -8 39 -5 4 3 -8 9 -25
12 -35 7 -44 30 -13 30 11 0 18 -3 15 -7 -6 -10 53 -32 65 -25 6 4 20 2 32 -4
25 -14 32 -9 23 14 -7 18 -27 18 -66 1 -13 -5 -18 -2 -18 10 0 11 5 15 15 12
8 -4 17 -2 20 3 4 6 2 10 -4 10 -5 0 -16 3 -24 6 -9 3 -17 0 -20 -8 -2 -7 -3
-5 -2 5 3 19 -15 23 -32 6 -7 -7 -13 -7 -17 0 -4 5 2 15 12 20 22 12 88 -3
113 -25 18 -16 29 -18 29 -6 0 12 -65 41 -108 48 -31 5 -39 2 -51 -18z"/>
<path d="M1287 2503 c-4 -3 -7 -11 -7 -17 0 -6 5 -5 12 2 6 6 9 14 7 17 -3 3
-9 2 -12 -2z"/>
<path d="M1816 2474 c-10 -25 -7 -41 8 -41 8 0 11 8 8 19 -2 10 1 18 7 18 6 0
11 5 11 10 0 16 -27 11 -34 -6z"/>
<path d="M1224 2447 c-10 -22 -9 -23 13 -13 12 6 21 15 20 20 -6 19 -22 15
-33 -7z"/>
<path d="M1522 2421 c13 -15 25 -27 27 -25 7 6 -29 54 -40 54 -6 0 0 -13 13
-29z"/>
<path d="M948 2378 c-4 -9 -2 -18 4 -20 7 -3 8 -9 3 -19 -13 -19 -17 -51 -6
-45 4 3 7 -18 5 -46 -1 -28 2 -58 6 -67 5 -9 23 -47 40 -86 45 -100 48 -106
81 -145 21 -25 29 -29 29 -17 0 10 -7 20 -15 23 -8 3 -17 16 -21 27 -4 12 -14
28 -23 35 -9 8 -11 11 -4 8 6 -4 1 15 -12 41 -13 25 -21 51 -18 56 3 6 1 7 -5
3 -7 -4 -14 4 -18 21 -3 15 -10 39 -15 53 -14 41 -21 148 -8 130 9 -13 10 -13
6 1 -3 9 0 22 6 28 9 9 8 11 -5 6 -11 -4 -17 -1 -20 12 -3 16 -4 16 -10 1z"/>
<path d="M989 2308 c-3 -22 -1 -34 4 -29 5 5 7 21 5 37 -3 27 -4 26 -9 -8z"/>
<path d="M1390 2271 c-17 -5 -21 -9 -12 -15 7 -4 20 -5 29 -2 8 4 22 1 29 -5
10 -8 14 -8 14 -1 0 17 -33 29 -60 23z"/>
<path d="M1515 2240 c-3 -5 -1 -10 4 -10 6 0 11 5 11 10 0 6 -2 10 -4 10 -3 0
-8 -4 -11 -10z"/>
<path d="M1191 2209 c-10 -11 -18 -28 -16 -37 1 -9 -2 -23 -8 -30 -7 -9 -6
-11 6 -6 17 6 33 42 23 51 -3 4 1 15 11 25 9 10 13 18 10 18 -3 0 -15 -9 -26
-21z"/>
<path d="M1305 2216 c-11 -6 -24 -15 -28 -21 -6 -6 -10 -6 -14 3 -7 17 -28 15
-43 -3 -17 -20 -7 -29 17 -17 11 6 25 7 33 2 10 -6 22 -1 39 16 27 28 26 37
-4 20z"/>
<path d="M1356 2214 c-11 -8 -16 -14 -12 -14 5 0 3 -6 -3 -13 -9 -11 -5 -13
20 -12 16 1 32 -2 35 -7 3 -4 15 -8 27 -8 12 0 37 -9 55 -20 18 -11 37 -18 43
-15 5 4 9 0 9 -7 0 -7 5 -5 11 6 14 23 -8 41 -28 24 -10 -8 -13 -6 -13 10 0
11 -7 25 -15 32 -18 15 -51 8 -47 -11 2 -10 -2 -9 -11 3 -8 10 -17 15 -20 11
-4 -3 -7 1 -7 11 0 9 -4 15 -9 12 -5 -4 -11 -2 -13 3 -1 5 -12 3 -22 -5z"/>
<path d="M1216 2141 c25 -23 125 -101 129 -101 9 0 5 7 -14 28 -10 12 -20 20
-22 18 -2 -3 -15 4 -29 14 -34 26 -24 30 33 16 26 -7 45 -14 42 -17 -3 -3 3
-6 13 -6 52 1 83 -4 78 -12 -3 -4 6 -6 20 -3 44 8 26 -30 -21 -45 -39 -13 -40
-13 -5 -8 19 3 47 14 63 25 21 16 27 17 27 6 0 -7 6 -16 14 -19 12 -5 12 -1 0
22 -12 25 -22 29 -73 35 -33 4 -92 18 -133 31 -72 24 -141 33 -122 16z"/>
<path d="M1557 2134 c-3 -3 -1 -18 4 -32 5 -14 8 -31 5 -39 -3 -7 -1 -13 4
-13 5 0 7 -8 3 -17 -4 -14 -2 -14 9 2 18 24 30 67 17 59 -5 -3 -9 1 -9 9 0 17
-24 40 -33 31z"/>
<path d="M1150 2110 c0 -5 5 -10 10 -10 6 0 10 5 10 10 0 6 -4 10 -10 10 -5 0
-10 -4 -10 -10z"/>
<path d="M1106 2028 c3 -5 10 -6 15 -3 13 9 11 12 -6 12 -8 0 -12 -4 -9 -9z"/>
<path d="M916 1923 c-3 -3 -6 -16 -5 -27 0 -15 2 -17 6 -6 3 8 10 18 16 21 6
4 6 9 -1 12 -5 4 -12 4 -16 0z"/>
<path d="M1528 1923 c6 -3 12 -9 12 -15 0 -6 -7 -8 -15 -4 -13 5 -15 -14 -15
-133 0 -170 1 -172 111 -170 41 1 63 4 51 6 -18 4 -23 9 -19 25 6 20 5 20 -17
-1 -31 -29 -74 -28 -85 3 -14 35 -2 149 17 164 9 6 11 12 6 12 -6 0 -15 -5
-22 -12 -9 -9 -13 -7 -18 6 -4 11 -1 22 7 27 12 8 11 11 -4 20 -9 6 -15 14
-12 20 9 13 42 11 48 -3 4 -8 6 -7 6 4 1 9 -7 18 -16 20 -15 3 -15 4 -1 19 15
14 13 16 -15 16 -18 0 -26 -2 -19 -4z m-1 -225 c-3 -7 -5 -2 -5 12 0 14 2 19
5 13 2 -7 2 -19 0 -25z"/>
<path d="M1625 1920 c11 -4 26 -5 34 -2 9 3 12 1 7 -6 -8 -14 6 -16 20 -3 5 5
20 11 34 13 14 3 -6 5 -45 5 -42 1 -62 -2 -50 -7z"/>
<path d="M1775 1905 c31 -30 32 -73 5 -108 l-21 -26 21 -11 c16 -9 20 -21 20
-64 0 -59 -11 -74 -63 -86 l-32 -8 36 -1 c62 -2 69 15 68 169 0 137 -6 160
-40 160 -16 0 -15 -3 6 -25z"/>
<path d="M1171 1908 c-1 -12 -9 -18 -23 -18 -23 -1 -23 -1 -3 -16 18 -13 20
-13 27 7 5 12 7 27 4 33 -2 6 -5 3 -5 -6z"/>
<path d="M1684 1895 c-12 -8 -25 -11 -29 -7 -5 4 -5 2 -1 -5 3 -6 2 -14 -3
-18 -18 -11 9 -63 39 -75 40 -17 69 -4 87 37 13 33 13 37 -8 59 -26 27 -55 31
-85 9z m34 -35 c6 0 12 3 15 8 2 4 2 1 1 -6 -2 -7 3 -15 11 -18 15 -6 9 -34
-7 -34 -6 0 -8 7 -4 15 3 9 0 15 -10 15 -10 0 -13 -7 -8 -25 8 -32 -9 -32 -30
0 -20 31 -12 90 9 62 7 -10 17 -17 23 -17z"/>
<path d="M1180 1868 c0 -9 9 -20 21 -23 26 -9 38 2 13 12 -10 3 -22 11 -26 17
-5 7 -8 4 -8 -6z"/>
<path d="M1590 1850 c-12 -8 -10 -10 8 -10 13 0 20 4 17 10 -7 12 -6 12 -25 0z"/>
<path d="M1595 1810 c-8 -13 5 -13 25 0 13 8 13 10 -2 10 -9 0 -20 -4 -23 -10z"/>
<path d="M1823 1703 c0 -57 1 -103 3 -103 11 0 33 60 24 65 -6 4 -10 3 -9 -2
1 -4 0 -15 -2 -23 -1 -8 -6 26 -9 75 l-7 90 0 -102z"/>
<path d="M820 1747 c0 -25 7 -52 16 -63 15 -19 16 -19 9 1 -4 11 -9 36 -12 55
l-5 35 20 -30 c11 -16 31 -41 46 -54 14 -14 26 -27 26 -30 0 -4 -19 -12 -41
-19 -31 -10 -45 -10 -53 -2 -8 8 -7 9 5 5 10 -4 20 -2 24 4 3 6 0 9 -8 5 -8
-3 -20 2 -27 11 -10 12 -15 13 -21 4 -4 -7 3 -21 17 -34 l24 -22 54 21 c30 11
49 24 44 27 -6 4 -7 12 -4 18 4 6 0 11 -8 11 -9 0 -16 4 -16 10 0 10 -73 90
-83 90 -4 0 -7 -19 -7 -43z"/>
<path d="M1628 1763 c7 -3 16 -2 19 1 4 3 -2 6 -13 5 -11 0 -14 -3 -6 -6z"/>
<path d="M1857 1758 c-2 -8 13 -20 37 -30 46 -19 80 -23 71 -8 -3 6 -15 10
-27 10 -11 0 -33 9 -48 20 -21 15 -29 17 -33 8z"/>
<path d="M1671 1735 c-16 -22 -18 -31 -9 -56 19 -56 97 -52 115 5 9 31 8 37
-11 55 -31 29 -70 27 -95 -4z m82 -15 c23 -27 4 -60 -34 -60 -27 0 -39 15 -39
50 0 33 47 40 73 10z"/>
<path d="M1707 1696 c-4 -10 -1 -13 8 -9 8 3 12 9 9 14 -7 12 -11 11 -17 -5z"/>
<path d="M1585 1720 c-11 -5 -15 -9 -10 -9 6 -1 3 -6 -5 -11 -9 -6 -10 -10 -3
-10 11 0 43 26 43 36 0 5 0 5 -25 -6z"/>
<path d="M1856 1710 c18 -18 82 -29 112 -19 25 9 25 9 -5 4 -18 -2 -33 -1 -33
4 0 5 -9 7 -19 4 -10 -3 -30 1 -42 7 -19 10 -21 10 -13 0z"/>
<path d="M2005 1690 c3 -5 1 -10 -5 -10 -6 0 -8 -5 -4 -12 5 -8 10 -7 18 5 7
8 23 17 36 20 18 3 14 5 -13 6 -23 0 -36 -3 -32 -9z"/>
<path d="M685 1675 c-16 -7 -23 -14 -14 -14 8 -1 24 6 35 14 24 18 18 18 -21
0z"/>
<path d="M1591 1659 c-13 -11 -21 -22 -19 -25 3 -3 19 6 34 20 34 30 20 35
-15 5z"/>
<path d="M1883 1649 c6 -10 13 -16 16 -14 2 3 10 0 18 -6 9 -8 13 -8 13 -1 0
6 -13 17 -29 25 -28 14 -29 14 -18 -4z"/>
<path d="M585 1638 c-22 -12 -86 -41 -143 -64 -104 -44 -187 -88 -198 -105 -3
-6 16 4 43 20 27 17 92 48 144 70 138 58 226 100 209 100 -8 0 -33 -9 -55 -21z"/>
<path d="M2105 1633 c-3 -15 -10 -30 -15 -33 -4 -3 -2 -11 6 -18 12 -11 14 -8
14 17 0 16 5 33 10 36 12 8 13 25 1 25 -5 0 -12 -12 -16 -27z"/>
<path d="M2153 1645 c0 -8 4 -12 9 -9 5 3 6 10 3 15 -9 13 -12 11 -12 -6z"/>
<path d="M1980 1630 c20 -13 53 -13 45 0 -3 6 -18 10 -33 10 -21 0 -24 -2 -12
-10z"/>
<path d="M800 1605 c7 -8 17 -15 22 -15 6 0 5 7 -2 15 -7 8 -17 15 -22 15 -6
0 -5 -7 2 -15z"/>
<path d="M2040 1610 c0 -5 5 -10 10 -10 6 0 10 5 10 10 0 6 -4 10 -10 10 -5 0
-10 -4 -10 -10z"/>
<path d="M2161 1604 c0 -11 3 -14 6 -6 3 7 2 16 -1 19 -3 4 -6 -2 -5 -13z"/>
<path d="M2226 1595 c9 -14 21 -25 27 -25 6 0 0 11 -13 25 -13 14 -25 25 -27
25 -2 0 4 -11 13 -25z"/>
<path d="M545 1580 c-3 -5 -1 -10 5 -10 6 0 8 -4 5 -10 -3 -5 1 -10 9 -10 20
0 20 7 2 26 -9 9 -17 10 -21 4z"/>
<path d="M1267 1510 c-4 -47 -10 -96 -13 -110 -6 -22 -5 -23 7 -9 8 9 32 23
54 30 33 11 36 14 17 17 -13 2 -29 -2 -37 -8 -12 -10 -15 2 -17 77 l-3 88 -8
-85z"/>
<path d="M2130 1562 c0 -17 4 -33 9 -36 10 -7 8 50 -2 60 -4 4 -7 -7 -7 -24z"/>
<path d="M2160 1476 c-28 -60 -49 -110 -47 -112 2 -3 24 36 48 86 23 50 49 94
55 98 8 5 10 12 5 21 -7 10 -24 -18 -61 -93z"/>
<path d="M1819 1453 c-1 -65 -1 -135 0 -156 2 -36 1 -38 -21 -32 -22 6 -22 6
-4 -9 11 -9 23 -16 28 -16 4 0 9 60 9 133 1 72 2 147 3 164 0 18 -2 33 -6 33
-5 0 -9 -53 -9 -117z"/>
<path d="M928 1553 c7 -3 16 -2 19 1 4 3 -2 6 -13 5 -11 0 -14 -3 -6 -6z"/>
<path d="M1060 1549 c-25 -5 -58 -7 -75 -4 -21 3 -25 2 -14 -5 17 -10 150 -9
143 1 -2 4 2 10 8 12 20 8 -11 6 -62 -4z"/>
<path d="M2299 1540 c-31 -26 -15 -26 18 0 14 11 21 20 15 20 -5 0 -20 -9 -33
-20z"/>
<path d="M2095 1538 c6 -15 -3 -106 -21 -225 -3 -17 -1 -34 5 -37 5 -4 7 3 3
16 -4 16 -2 19 8 13 9 -5 11 -4 6 4 -4 7 -2 59 4 117 9 81 9 109 0 117 -8 9
-10 8 -5 -5z"/>
<path d="M2342 1520 c0 -14 2 -19 5 -12 2 6 2 18 0 25 -3 6 -5 1 -5 -13z"/>
<path d="M2253 1514 c9 -10 -11 -34 -26 -30 -7 1 -9 1 -4 -1 16 -10 5 -25 -14
-20 -16 4 -19 3 -11 -5 15 -15 3 -38 -16 -31 -13 4 -14 3 -3 -5 7 -5 10 -15 6
-22 -6 -9 -9 -9 -16 1 -4 7 -10 11 -13 9 -2 -3 2 -13 9 -23 13 -18 15 -17 30
13 9 17 32 48 51 69 30 34 32 40 17 45 -10 4 -14 4 -10 0z"/>
<path d="M741 1494 c0 -11 3 -14 6 -6 3 7 2 16 -1 19 -3 4 -6 -2 -5 -13z"/>
<path d="M2120 1486 c-12 -33 -12 -36 -1 -36 9 0 22 52 15 59 -2 2 -8 -8 -14
-23z"/>
<path d="M1137 1483 c-3 -5 -8 -23 -12 -40 -8 -37 -12 -39 -43 -17 -12 8 -22
12 -22 7 1 -16 28 -43 43 -43 9 0 19 -4 22 -10 3 -5 12 -10 18 -10 7 0 4 6 -5
14 -10 7 -15 16 -11 20 4 4 8 14 9 23 2 9 5 27 9 40 5 22 1 31 -8 16z"/>
<path d="M400 1471 c0 -6 5 -13 10 -16 6 -3 10 -1 10 5 0 6 5 8 12 4 7 -4 8
-3 4 4 -9 14 -36 16 -36 3z"/>
<path d="M2372 1453 c-6 -16 -13 -38 -17 -50 -3 -12 -28 -52 -55 -90 -28 -37
-50 -73 -50 -80 0 -7 -4 -13 -8 -13 -5 0 -14 -10 -20 -22 -9 -21 -10 -19 -8
14 1 20 5 40 9 45 5 4 5 -1 1 -12 -4 -11 21 22 55 73 69 103 71 141 4 63 -66
-77 -93 -121 -93 -155 0 -18 -6 -56 -14 -86 -14 -54 -14 -54 5 -30 10 14 19
30 19 37 0 6 34 48 76 92 68 72 78 88 99 158 29 91 27 83 16 83 -5 0 -13 -12
-19 -27z"/>
<path d="M2240 1427 c-37 -63 -37 -67 4 -17 35 45 43 60 29 60 -5 0 -19 -19
-33 -43z"/>
<path d="M990 1433 c0 -6 7 -16 15 -23 29 -24 -1 -32 -38 -10 -29 18 -45 20
-79 15 -24 -4 -50 -11 -58 -16 -16 -10 -7 -9 62 5 30 7 43 4 74 -18 21 -14 44
-26 51 -26 6 0 20 -11 31 -24 13 -17 23 -22 33 -15 9 6 10 9 2 9 -7 0 -19 12
-27 28 -19 34 -66 88 -66 75z"/>
<path d="M1030 1431 c0 -6 4 -13 10 -16 6 -3 7 1 4 9 -7 18 -14 21 -14 7z"/>
<path d="M1425 1430 c17 -6 61 -17 99 -25 38 -8 80 -22 95 -31 23 -15 24 -15
13 -1 -17 20 -120 54 -187 61 -42 4 -45 4 -20 -4z"/>
<path d="M380 1419 c0 -5 5 -7 10 -4 6 3 10 8 10 11 0 2 -4 4 -10 4 -5 0 -10
-5 -10 -11z"/>
<path d="M1385 1400 c3 -5 12 -7 20 -3 21 7 19 13 -6 13 -11 0 -18 -4 -14 -10z"/>
<path d="M1930 1388 c0 -9 7 -23 15 -32 8 -8 15 -19 15 -25 0 -6 5 -11 10 -11
7 0 6 8 -2 21 -7 12 -19 31 -25 43 -10 17 -13 18 -13 4z"/>
<path d="M2020 1381 c0 -25 6 -27 13 -6 4 8 2 17 -3 20 -6 4 -10 -3 -10 -14z"/>
<path d="M2437 1394 c-4 -4 -7 -17 -7 -28 1 -19 1 -20 11 -3 11 19 8 43 -4 31z"/>
<path d="M360 1369 c0 -5 5 -7 10 -4 6 3 10 8 10 11 0 2 -4 4 -10 4 -5 0 -10
-5 -10 -11z"/>
<path d="M590 1371 c0 -5 7 -14 15 -21 13 -10 15 -9 15 9 0 12 -6 21 -15 21
-8 0 -15 -4 -15 -9z"/>
<path d="M900 1366 c0 -2 9 -6 20 -9 11 -3 18 -1 14 4 -5 9 -34 13 -34 5z"/>
<path d="M1070 1360 c0 -5 7 -10 15 -10 8 0 15 -3 15 -7 0 -11 61 -45 68 -38
3 3 0 5 -6 5 -6 0 -9 7 -6 15 4 10 2 13 -8 10 -8 -3 -23 3 -33 15 -19 21 -45
27 -45 10z"/>
<path d="M1583 1363 c-7 -2 -13 -11 -13 -19 0 -8 -7 -14 -16 -14 -9 0 -14 -6
-12 -12 6 -16 57 -42 66 -33 6 5 -11 20 -31 28 -5 1 -5 11 -1 21 5 12 9 14 14
6 5 -9 9 -9 14 -1 4 6 2 11 -4 11 -6 0 -8 5 -5 10 7 11 6 11 -12 3z"/>
<path d="M2155 1359 c9 -23 -12 -34 -32 -17 -14 11 -16 11 -11 -2 7 -22 44
-24 52 -4 4 10 2 22 -4 28 -8 8 -9 6 -5 -5z"/>
<path d="M1664 1341 c21 -23 26 -26 26 -11 0 5 -10 15 -22 21 -23 12 -23 12
-4 -10z"/>
<path d="M160 1346 c0 -2 6 -21 14 -43 13 -37 13 -41 -4 -53 -17 -12 -18 -16
-4 -49 8 -19 16 -37 18 -39 9 -8 44 23 39 35 -4 11 -9 11 -24 -3 -17 -15 -19
-15 -19 -1 0 9 7 20 16 25 14 8 13 15 -2 70 -10 34 -21 62 -26 62 -4 0 -8 -2
-8 -4z m22 -118 c-7 -7 -12 -8 -12 -2 0 14 12 26 19 19 2 -3 -1 -11 -7 -17z"/>
<path d="M276 1335 c-3 -8 -1 -15 4 -15 9 0 18 -23 26 -66 3 -15 1 -23 -5 -19
-6 3 -6 -6 1 -25 6 -17 8 -46 5 -65 -3 -21 0 -40 8 -52 13 -17 14 -16 15 12 0
45 -19 210 -26 229 -8 20 -20 21 -28 1z"/>
<path d="M427 1336 c-3 -8 -3 -17 0 -20 7 -7 33 13 33 25 0 15 -27 10 -33 -5z"/>
<path d="M855 1340 c11 -5 27 -9 35 -9 9 0 8 4 -5 9 -11 5 -27 9 -35 9 -9 0
-8 -4 5 -9z"/>
<path d="M1240 1340 c0 -5 5 -10 10 -10 6 0 10 5 10 10 0 6 -4 10 -10 10 -5 0
-10 -4 -10 -10z"/>
<path d="M1616 1333 c-6 -14 -5 -15 5 -6 7 7 10 15 7 18 -3 3 -9 -2 -12 -12z"/>
<path d="M2404 1315 c-14 -14 -23 -29 -19 -34 4 -8 65 43 65 55 0 12 -24 1
-46 -21z"/>
<path d="M2044 1288 c10 -40 11 -41 14 -15 4 33 -3 57 -17 57 -5 0 -4 -18 3
-42z"/>
<path d="M1510 1310 c0 -5 5 -10 10 -10 6 0 10 5 10 10 0 6 -4 10 -10 10 -5 0
-10 -4 -10 -10z"/>
<path d="M1701 1317 c2 -1 13 -9 24 -17 19 -14 19 -14 6 3 -7 9 -18 17 -24 17
-6 0 -8 -1 -6 -3z"/>
<path d="M559 1298 c-1 -7 -1 -16 0 -20 0 -4 -8 -10 -19 -13 -11 -4 -20 -10
-20 -15 0 -4 -13 -13 -30 -19 -16 -5 -30 -15 -30 -20 0 -15 12 -14 38 5 13 9
31 13 42 9 12 -4 20 -2 20 5 0 6 -4 8 -10 5 -5 -3 -10 2 -10 11 0 10 3 14 7
11 10 -11 33 13 33 34 0 21 -19 27 -21 7z"/>
<path d="M1080 1295 c0 -11 -5 -15 -16 -11 -9 3 -12 2 -9 -5 4 -5 15 -7 25 -4
17 5 42 -15 73 -58 11 -16 14 -16 32 -3 20 15 20 15 -1 16 -12 0 -27 7 -34 15
-10 12 -10 15 3 15 9 0 19 5 23 12 5 8 0 9 -16 5 -15 -4 -33 1 -52 14 -25 18
-28 18 -28 4z"/>
<path d="M1980 1301 c0 -6 4 -13 10 -16 6 -3 7 1 4 9 -7 18 -14 21 -14 7z"/>
<path d="M2132 1297 c-7 -8 -9 -17 -5 -20 3 -4 -2 -7 -13 -7 -16 0 -16 -2 -4
-10 11 -7 18 -3 28 16 15 29 11 42 -6 21z"/>
<path d="M412 1280 c-18 -29 -15 -38 4 -12 9 13 14 25 12 27 -2 2 -9 -5 -16
-15z"/>
<path d="M146 1274 c-10 -25 1 -29 14 -5 6 12 7 21 1 21 -5 0 -12 -7 -15 -16z"/>
<path d="M346 1274 c-4 -10 -1 -14 6 -12 15 5 23 28 10 28 -5 0 -13 -7 -16
-16z"/>
<path d="M2436 1273 c-6 -14 -5 -15 5 -6 7 7 10 15 7 18 -3 3 -9 -2 -12 -12z"/>
<path d="M973 1266 c11 -16 8 -28 -5 -20 -8 4 -10 3 -5 -2 5 -5 12 -9 15 -10
4 0 20 -6 36 -13 25 -10 27 -13 15 -28 -13 -15 -12 -15 6 -6 15 9 22 8 31 -5
7 -10 16 -13 21 -9 9 10 -54 67 -75 67 -8 0 -21 8 -30 18 -10 9 -14 13 -9 8z"/>
<path d="M2286 1204 c-69 -69 -99 -105 -61 -74 29 24 23 5 -16 -54 -22 -32
-37 -61 -34 -64 3 -3 6 -3 8 -1 1 2 30 38 63 79 33 41 68 91 77 110 10 19 25
45 33 58 30 41 6 23 -70 -54z"/>
<path d="M116 1253 c3 -12 6 -40 7 -62 0 -22 5 -37 9 -35 4 3 8 -2 8 -10 0
-20 -19 -21 -26 -1 -9 22 -23 18 -17 -4 5 -21 83 -101 83 -86 0 6 9 -5 20 -22
12 -20 25 -31 34 -27 10 4 4 16 -23 45 -21 21 -43 39 -48 39 -6 0 -16 6 -22
14 -10 11 -8 15 6 18 10 2 26 -6 35 -17 9 -11 5 5 -10 35 -15 30 -35 73 -45
95 -9 22 -14 30 -11 18z"/>
<path d="M2000 1262 c0 -4 12 -19 27 -33 20 -18 23 -19 13 -4 -24 32 -40 47
-40 37z"/>
<path d="M1640 1251 c0 -12 39 -25 47 -17 4 3 -1 6 -10 6 -9 0 -17 5 -17 10 0
6 -4 10 -10 10 -5 0 -10 -4 -10 -9z"/>
<path d="M2131 1234 c-8 -16 -16 -40 -18 -54 -2 -20 1 -18 18 13 11 21 19 46
17 55 -2 11 -7 7 -17 -14z"/>
<path d="M660 1234 c-14 -8 -18 -14 -10 -13 8 0 26 6 40 14 14 8 18 14 10 14
-8 -1 -26 -7 -40 -15z"/>
<path d="M2425 1235 c-16 -7 -23 -14 -14 -14 8 -1 24 6 35 14 24 18 18 18 -21
0z"/>
<path d="M2161 1214 c-12 -27 -11 -28 4 -12 10 9 16 21 13 28 -2 7 -10 -1 -17
-16z"/>
<path d="M2350 1220 c-9 -6 -10 -10 -3 -10 6 0 15 5 18 10 8 12 4 12 -15 0z"/>
<path d="M2503 1220 c2 -8 -7 -32 -20 -52 -23 -38 -20 -48 9 -25 21 16 30 58
17 77 -9 13 -10 13 -6 0z"/>
<path d="M389 1207 c-8 -7 -19 -21 -23 -32 -6 -16 -2 -15 20 7 29 28 31 45 3
25z"/>
<path d="M1716 1208 c4 -7 16 -19 26 -26 10 -7 15 -19 11 -25 -4 -7 0 -6 10 2
24 19 22 25 -19 44 -23 12 -33 13 -28 5z"/>
<path d="M1862 1204 c10 -10 20 -15 24 -12 3 4 -5 12 -18 18 -22 12 -22 12 -6
-6z"/>
<path d="M2080 1205 c0 -8 2 -15 4 -15 2 0 6 7 10 15 3 8 1 15 -4 15 -6 0 -10
-7 -10 -15z"/>
<path d="M610 1200 c-9 -6 -10 -10 -3 -10 6 0 15 5 18 10 8 12 4 12 -15 0z"/>
<path d="M533 1189 c-6 -8 -24 -38 -39 -68 -52 -96 -57 -106 -71 -119 -7 -7
-13 -23 -13 -34 0 -11 -13 -43 -30 -70 -32 -52 -40 -83 -15 -58 8 8 44 76 81
150 37 74 76 147 86 163 20 29 21 61 1 36z"/>
<path d="M912 1167 c1 -20 6 -33 11 -30 5 3 7 13 4 23 -4 14 0 17 12 13 17 -7
16 -5 -12 16 -16 13 -18 11 -15 -22z"/>
<path d="M1105 1189 c-4 -5 2 -9 11 -9 13 0 15 -3 7 -11 -7 -7 -8 -15 -2 -23
5 -6 16 -20 24 -31 12 -18 15 -18 28 -5 19 19 29 52 19 66 -9 14 -80 25 -87
13z m63 -34 c-3 -13 0 -26 6 -29 6 -2 7 -5 1 -5 -22 -1 -37 17 -30 38 9 29 28
26 23 -4z"/>
<path d="M2040 1180 c-6 -11 -7 -20 -2 -20 6 0 12 9 15 20 3 11 3 20 1 20 -2
0 -8 -9 -14 -20z"/>
<path d="M445 1168 c-4 -13 -20 -36 -35 -53 -15 -16 -30 -39 -34 -50 -4 -12
10 -2 33 23 39 43 69 102 51 102 -5 0 -12 -10 -15 -22z"/>
<path d="M2365 1155 c-27 -18 -77 -60 -109 -94 -64 -64 -75 -93 -14 -36 19 19
38 31 41 28 15 -14 -109 -147 -129 -139 -15 6 -19 -19 -5 -28 19 -12 106 72
145 137 21 37 45 67 53 67 14 0 103 79 103 93 0 16 -38 4 -85 -28z"/>
<path d="M1893 1173 c4 -7 0 -16 -10 -22 -17 -10 -16 -10 3 -11 11 0 25 -5 31
-11 9 -9 11 -7 6 9 -3 12 -12 27 -21 34 -11 9 -13 9 -9 1z"/>
<path d="M230 1170 c-7 -22 -7 -40 1 -40 6 0 7 -5 3 -11 -4 -8 -9 -7 -15 2 -4
7 -5 17 -3 21 3 4 -2 8 -11 8 -14 0 -14 -3 0 -30 8 -16 14 -33 13 -37 -5 -18
24 -54 39 -49 11 4 13 2 9 -9 -3 -8 -1 -15 4 -15 6 0 10 6 9 13 -1 19 -27 84
-28 70 -1 -7 -5 -13 -11 -13 -13 0 -13 27 0 32 6 2 6 14 1 33 -5 17 -10 28
-11 25z m30 -111 c0 -14 -16 -11 -29 5 -10 12 -8 13 8 9 12 -3 21 -9 21 -14z"/>
<path d="M2085 1147 c5 -44 26 -137 32 -137 5 0 -3 78 -13 133 -7 33 -22 36
-19 4z"/>
<path d="M2136 1148 c-17 -25 -21 -65 -7 -87 5 -8 9 4 9 34 1 26 7 53 13 61 6
8 9 14 6 14 -3 0 -13 -10 -21 -22z"/>
<path d="M591 1134 c0 -11 3 -14 6 -6 3 7 2 16 -1 19 -3 4 -6 -2 -5 -13z"/>
<path d="M1939 1128 c15 -41 48 -102 76 -144 13 -20 22 -40 19 -45 -3 -5 1 -6
9 -3 11 4 3 26 -35 97 -50 95 -89 148 -69 95z"/>
<path d="M2000 1136 c0 -18 26 -39 39 -31 6 3 2 14 -9 25 -24 24 -30 25 -30 6z"/>
<path d="M2508 1124 c-16 -8 -28 -21 -28 -29 0 -23 13 -18 45 15 31 33 25 38
-17 14z"/>
<path d="M930 1115 c0 -8 2 -15 4 -15 2 0 6 7 10 15 3 8 1 15 -4 15 -6 0 -10
-7 -10 -15z"/>
<path d="M1835 1121 c-11 -5 -24 -7 -30 -6 -5 1 -7 0 -2 -2 4 -3 7 -11 7 -19
0 -8 10 -29 22 -47 13 -18 24 -34 25 -36 2 -2 6 -2 9 1 3 3 0 17 -7 30 -31 58
-31 59 -12 74 20 15 17 16 -12 5z"/>
<path d="M1875 1120 c-4 -6 -1 -10 5 -10 6 0 9 -4 6 -8 -2 -4 4 -8 14 -8 10 0
16 6 13 12 -6 17 -31 25 -38 14z"/>
<path d="M80 1114 c0 -10 49 -73 50 -63 0 3 -11 20 -25 39 -14 19 -25 30 -25
24z"/>
<path d="M1385 1112 c-2 -2 -1 -10 2 -18 3 -10 10 -11 23 -4 9 5 20 6 24 3 3
-3 6 0 6 8 0 14 -44 22 -55 11z"/>
<path d="M280 1095 c0 -8 4 -15 10 -15 5 0 7 7 4 15 -4 8 -8 15 -10 15 -2 0
-4 -7 -4 -15z"/>
<path d="M1041 1078 l-11 -32 20 22 c12 12 25 22 30 22 6 0 10 5 10 10 0 6 -9
10 -19 10 -12 0 -23 -11 -30 -32z"/>
<path d="M2440 1086 c-5 -13 -27 -34 -49 -47 -24 -13 -41 -30 -41 -40 0 -16 3
-16 24 4 13 12 39 33 58 46 19 14 35 33 35 43 2 26 -16 22 -27 -6z"/>
<path d="M1108 1088 c6 -6 18 -8 28 -6 14 3 12 5 -9 10 -19 3 -25 2 -19 -4z"/>
<path d="M1498 1093 c7 -3 16 -2 19 1 4 3 -2 6 -13 5 -11 0 -14 -3 -6 -6z"/>
<path d="M566 1078 c3 -5 10 -6 15 -3 13 9 11 12 -6 12 -8 0 -12 -4 -9 -9z"/>
<path d="M670 1079 c0 -5 5 -7 10 -4 6 3 10 8 10 11 0 2 -4 4 -10 4 -5 0 -10
-5 -10 -11z"/>
<path d="M930 1074 c0 -8 5 -12 10 -9 6 3 10 10 10 16 0 5 -4 9 -10 9 -5 0
-10 -7 -10 -16z"/>
<path d="M84 1063 c2 -13 -1 -23 -7 -23 -16 0 -1 -11 19 -14 10 -2 20 -9 22
-17 3 -12 2 -12 -6 0 -7 9 -12 10 -16 2 -4 -6 -2 -11 3 -11 6 0 11 -6 11 -14
0 -8 4 -17 8 -20 15 -9 5 64 -10 77 -9 6 -19 19 -22 27 -3 8 -4 5 -2 -7z"/>
<path d="M2360 1069 c0 -5 5 -7 10 -4 6 3 10 8 10 11 0 2 -4 4 -10 4 -5 0 -10
-5 -10 -11z"/>
<path d="M2520 1072 c0 -13 38 -23 46 -11 3 5 1 9 -5 9 -5 0 -16 3 -25 6 -9 3
-16 2 -16 -4z"/>
<path d="M290 1061 c0 -5 7 -17 16 -25 8 -9 13 -20 10 -25 -3 -4 -2 -28 3 -52
8 -40 9 -38 8 27 -2 57 -5 70 -16 66 -9 -3 -12 -1 -7 6 4 7 2 12 -3 12 -6 0
-11 -4 -11 -9z"/>
<path d="M1350 1060 c0 -5 9 -10 20 -10 11 0 20 5 20 10 0 6 -9 10 -20 10 -11
0 -20 -4 -20 -10z"/>
<path d="M1899 1038 c-13 -18 -27 -34 -31 -36 -14 -6 -9 -22 7 -22 8 0 15 8
15 19 0 22 23 44 35 33 5 -4 5 -2 2 5 -4 6 -2 13 5 15 9 3 9 6 1 11 -7 4 -21
-7 -34 -25z"/>
<path d="M1400 1050 c0 -5 9 -10 20 -10 11 0 20 5 20 10 0 6 -9 10 -20 10 -11
0 -20 -4 -20 -10z"/>
<path d="M2040 1050 c0 -5 7 -10 15 -10 8 0 15 5 15 10 0 6 -7 10 -15 10 -8 0
-15 -4 -15 -10z"/>
<path d="M2138 1013 c-16 -50 -13 -100 4 -69 5 9 6 21 3 26 -4 6 -1 26 5 46 7
19 10 37 8 40 -3 2 -12 -17 -20 -43z"/>
<path d="M1484 1039 c-3 -5 1 -9 10 -9 8 0 21 -3 30 -6 9 -3 16 -2 16 4 0 13
-49 22 -56 11z"/>
<path d="M1608 1043 c7 -3 16 -2 19 1 4 3 -2 6 -13 5 -11 0 -14 -3 -6 -6z"/>
<path d="M1075 1030 c-3 -5 -3 -10 0 -10 3 0 -2 -13 -11 -29 -10 -17 -22 -27
-27 -24 -6 3 -7 1 -3 -5 12 -20 55 19 56 51 0 28 -5 34 -15 17z"/>
<path d="M1560 1025 c0 -9 9 -15 23 -14 12 0 16 3 9 6 -6 2 -10 9 -6 14 3 5
-2 9 -10 9 -9 0 -16 -7 -16 -15z"/>
<path d="M2519 1029 c-31 -3 -62 -10 -69 -14 -9 -5 -11 -4 -6 3 4 7 2 12 -3
12 -6 0 -11 -7 -11 -15 0 -9 -9 -15 -22 -15 -16 0 -19 -3 -10 -9 10 -6 10 -10
-3 -21 -8 -7 -15 -9 -15 -6 0 14 -28 -20 -35 -43 -5 -17 -9 -20 -15 -11 -6 9
-16 -3 -34 -38 -30 -59 -32 -72 -12 -72 8 0 29 26 47 58 37 65 96 128 136 143
15 6 46 9 68 8 38 -3 50 3 43 19 -2 4 -28 4 -59 1z"/>
<path d="M1276 1015 c-3 -8 -14 -15 -24 -15 -47 0 -69 -72 -32 -105 16 -14 24
-16 42 -7 17 8 19 11 7 11 -9 1 -20 8 -23 17 -3 8 -10 12 -16 9 -6 -4 -9 5 -8
20 3 34 25 45 74 40 22 -2 51 -4 67 -4 17 -1 27 -6 27 -16 0 -8 4 -15 10 -15
5 0 7 7 3 17 -5 13 -2 15 18 9 13 -4 51 -12 84 -18 70 -13 74 -16 55 -29 -12
-9 -12 -10 3 -5 9 3 17 2 17 -3 0 -4 32 -11 71 -14 39 -3 77 -12 86 -18 12
-10 16 -10 24 2 8 13 13 5 9 -16 -1 -5 4 -5 11 2 9 9 8 15 -5 28 -9 9 -16 14
-16 10 0 -3 -10 0 -22 7 -13 7 -36 13 -53 13 -16 0 -31 4 -32 9 -1 6 -24 16
-50 22 -58 16 -73 17 -53 4 13 -8 12 -10 -2 -10 -10 0 -18 7 -18 15 0 9 -10
15 -26 15 -14 0 -23 -4 -20 -9 3 -4 -24 0 -61 10 -36 10 -70 16 -74 13 -5 -3
-9 -1 -9 5 0 5 -9 8 -20 6 -11 -2 -18 0 -15 6 4 5 0 9 -8 9 -8 0 -17 -7 -21
-15z"/>
<path d="M1638 1016 c3 -5 -2 -6 -12 -3 -11 4 -15 3 -11 -4 4 -6 13 -8 20 -5
7 2 16 2 20 -2 3 -4 22 -7 42 -9 54 -3 134 -44 129 -65 -2 -10 0 -18 5 -18 5
0 9 8 9 17 0 15 2 14 14 -2 8 -11 12 -24 9 -29 -3 -5 0 -7 7 -4 8 2 15 8 16
14 3 10 -69 70 -80 66 -4 -1 -14 4 -22 13 -9 8 -22 15 -30 15 -9 0 -25 5 -37
12 -26 14 -88 17 -79 4z"/>
<path d="M1160 1010 c-12 -8 -12 -10 5 -10 11 0 27 5 35 10 12 8 12 10 -5 10
-11 0 -27 -5 -35 -10z"/>
<path d="M185 990 c-4 -6 -1 -17 5 -25 9 -11 10 -18 1 -29 -15 -18 -5 -41 24
-54 16 -8 28 -25 35 -54 11 -40 45 -107 61 -118 4 -3 17 -27 30 -55 13 -27 38
-71 57 -97 36 -51 69 -142 80 -222 8 -54 36 -80 31 -30 -1 16 1 52 5 81 8 56
3 75 -19 67 -9 -4 -12 -17 -9 -42 4 -36 4 -36 -11 8 -18 56 -19 66 -1 51 12
-10 17 -8 25 8 9 16 2 34 -40 103 -28 46 -62 94 -74 108 -31 34 -45 64 -45 94
0 14 -5 26 -10 26 -16 0 -1 -49 29 -98 14 -24 33 -55 41 -70 9 -15 32 -53 53
-85 44 -68 50 -98 13 -70 -12 10 -23 22 -22 28 0 5 -35 64 -79 130 -43 66 -87
142 -96 169 -9 27 -24 57 -33 67 -8 10 -18 31 -21 46 -6 27 -6 27 9 9 9 -11
16 -24 16 -29 0 -4 5 -5 10 -2 15 9 12 17 -24 58 -21 24 -37 34 -41 27z"/>
<path d="M245 991 c-6 -10 54 -105 62 -97 6 5 -21 63 -32 67 -5 2 -10 9 -10
16 0 17 -12 26 -20 14z"/>
<path d="M1110 990 c0 -5 7 -7 15 -4 8 4 15 8 15 10 0 2 -7 4 -15 4 -8 0 -15
-4 -15 -10z"/>
<path d="M1942 993 c-40 -5 -38 -25 4 -30 24 -3 30 0 31 17 1 11 1 19 0 18 -1
0 -17 -3 -35 -5z"/>
<path d="M130 986 c0 -2 8 -10 18 -17 15 -13 16 -12 3 4 -13 16 -21 21 -21 13z"/>
<path d="M2470 980 c-11 -7 -5 -10 23 -10 20 0 37 5 37 10 0 13 -40 13 -60 0z"/>
<path d="M70 954 c0 -18 23 -43 50 -54 16 -7 30 -15 30 -19 0 -3 9 -17 20 -31
23 -30 22 -5 -1 31 -9 13 -19 34 -23 47 -4 12 -11 20 -16 17 -5 -3 -20 -1 -34
5 -14 5 -26 7 -26 4z"/>
<path d="M596 945 c-8 -8 -18 -15 -23 -15 -5 0 -16 -9 -25 -19 -12 -14 -13
-21 -4 -24 14 -6 48 17 39 26 -3 4 2 7 13 7 11 0 25 9 32 20 10 17 10 20 -2
20 -8 0 -21 -7 -30 -15z"/>
<path d="M1000 940 c-6 -11 -8 -20 -6 -20 3 0 10 9 16 20 6 11 8 20 6 20 -3 0
-10 -9 -16 -20z"/>
<path d="M2608 938 c-9 -11 -20 -34 -23 -49 -4 -16 -17 -37 -31 -48 -30 -24
-30 -31 -1 -30 31 0 63 46 71 102 4 26 6 47 4 47 -2 0 -11 -10 -20 -22z"/>
<path d="M1127 943 c-4 -3 -7 -11 -7 -17 0 -6 5 -5 12 2 6 6 9 14 7 17 -3 3
-9 2 -12 -2z"/>
<path d="M2254 922 c-43 -37 -63 -73 -55 -96 6 -16 15 -8 54 47 26 36 47 68
47 71 0 12 -16 5 -46 -22z"/>
<path d="M1012 917 c-17 -18 -19 -24 -7 -24 8 0 13 3 10 5 -3 3 2 14 12 24 24
27 10 22 -15 -5z"/>
<path d="M2445 930 c3 -5 12 -10 20 -10 8 0 17 5 20 10 4 6 -5 10 -20 10 -15
0 -24 -4 -20 -10z"/>
<path d="M2497 927 c-5 -13 -1 -17 16 -17 12 0 29 5 37 11 12 8 9 10 -12 6
-15 -2 -29 1 -31 6 -2 6 -6 3 -10 -6z"/>
<path d="M1087 923 c-4 -3 -7 -11 -7 -17 0 -6 5 -5 12 2 6 6 9 14 7 17 -3 3
-9 2 -12 -2z"/>
<path d="M1373 917 c1 -7 -5 -12 -13 -12 -15 0 -36 -23 -28 -30 2 -2 24 -6 48
-9 32 -4 36 -3 15 2 -28 7 -29 8 -10 20 14 8 16 12 5 12 -12 0 -12 2 -2 9 11
7 11 9 -2 14 -9 4 -15 1 -13 -6z"/>
<path d="M2063 908 c-2 -16 1 -18 10 -9 7 7 8 14 1 21 -6 6 -10 2 -11 -12z"/>
<path d="M467 902 c-20 -21 -22 -32 -6 -32 5 0 7 5 4 10 -3 6 -2 10 3 10 6 0
12 7 16 15 7 20 3 19 -17 -3z"/>
<path d="M1165 910 c3 -5 8 -10 11 -10 2 0 4 5 4 10 0 6 -5 10 -11 10 -5 0 -7
-4 -4 -10z"/>
<path d="M656 893 c-6 -14 -5 -15 5 -6 7 7 10 15 7 18 -3 3 -9 -2 -12 -12z"/>
<path d="M710 906 c0 -2 7 -6 15 -10 8 -3 15 -1 15 4 0 6 -7 10 -15 10 -8 0
-15 -2 -15 -4z"/>
<path d="M790 896 c0 -2 8 -10 18 -17 15 -13 16 -12 3 4 -13 16 -21 21 -21 13z"/>
<path d="M1120 890 c-12 -8 -11 -10 7 -10 12 0 25 5 28 10 8 13 -15 13 -35 0z"/>
<path d="M1475 891 c6 -5 39 -13 74 -16 62 -6 132 -27 158 -47 7 -6 18 -6 28
0 13 7 2 14 -49 31 -36 12 -87 24 -113 27 -26 2 -61 7 -78 10 -19 3 -26 1 -20
-5z"/>
<path d="M1987 886 c-4 -10 -1 -13 9 -9 15 6 19 23 5 23 -5 0 -11 -7 -14 -14z"/>
<path d="M70 880 c0 -5 5 -10 12 -10 6 0 8 -3 5 -7 -7 -6 37 -33 54 -33 20 0
7 21 -23 40 -37 22 -48 25 -48 10z"/>
<path d="M705 879 c-4 -6 -5 -12 -2 -15 2 -3 7 2 10 11 7 17 1 20 -8 4z"/>
<path d="M1024 874 c-18 -14 -18 -15 4 -4 12 6 31 8 42 5 10 -3 21 -1 25 5 10
16 -49 12 -71 -6z"/>
<path d="M1298 883 c7 -3 16 -2 19 1 4 3 -2 6 -13 5 -11 0 -14 -3 -6 -6z"/>
<path d="M767 862 c-19 -21 -22 -32 -7 -32 6 0 10 6 10 14 0 8 6 16 13 19 6 2
9 7 6 11 -3 3 -13 -2 -22 -12z"/>
<path d="M1900 870 c0 -5 5 -10 10 -10 6 0 10 5 10 10 0 6 -4 10 -10 10 -5 0
-10 -4 -10 -10z"/>
<path d="M299 851 c15 -27 31 -36 31 -17 0 8 -9 20 -21 26 -19 11 -20 10 -10
-9z"/>
<path d="M2150 855 c-8 -10 -10 -19 -4 -25 5 -5 14 1 21 16 12 27 2 32 -17 9z"/>
<path d="M442 840 c-7 -11 -9 -20 -4 -20 4 0 13 9 20 20 7 11 9 20 4 20 -4 0
-13 -9 -20 -20z"/>
<path d="M519 843 c0 -11 -3 -13 -6 -5 -5 13 -23 7 -23 -9 0 -6 4 -8 9 -5 5 4
11 2 13 -4 2 -6 9 -1 15 9 8 13 9 22 3 26 -6 3 -10 -2 -11 -12z"/>
<path d="M1130 850 c-8 -5 -10 -10 -5 -10 6 0 17 5 25 10 8 5 11 10 5 10 -5 0
-17 -5 -25 -10z"/>
<path d="M1195 850 c-18 -8 -17 -9 8 -9 16 -1 26 3 22 9 -3 6 -7 10 -8 9 -1 0
-11 -4 -22 -9z"/>
<path d="M2360 856 c0 -2 7 -7 16 -10 8 -3 12 -2 9 4 -6 10 -25 14 -25 6z"/>
<path d="M214 835 c11 -8 22 -12 25 -9 6 6 -19 24 -34 24 -5 -1 -1 -7 9 -15z"/>
<path d="M382 827 c-28 -30 -28 -41 -1 -26 21 11 22 10 16 -25 -3 -20 -2 -36
4 -36 8 0 14 29 10 52 0 4 4 19 9 33 12 33 -8 34 -38 2z"/>
<path d="M650 840 c-8 -5 -11 -12 -7 -17 5 -4 11 -2 15 4 4 6 16 13 27 16 20
5 20 5 0 6 -11 0 -27 -3 -35 -9z"/>
<path d="M1084 842 c3 -6 -2 -15 -11 -21 -10 -6 -13 -11 -7 -11 20 0 37 27 23
36 -7 4 -9 3 -5 -4z"/>
<path d="M2408 843 c7 -3 16 -2 19 1 4 3 -2 6 -13 5 -11 0 -14 -3 -6 -6z"/>
<path d="M585 830 c-11 -4 -26 -5 -34 -2 -10 4 -13 1 -8 -12 8 -19 -1 -24 -56
-29 -50 -6 -64 -19 -50 -49 6 -13 16 -43 21 -68 l11 -45 -4 45 c-1 25 -5 54
-7 65 -2 17 6 22 59 35 34 8 68 21 75 28 14 14 32 16 23 2 -8 -13 19 -12 133
4 110 15 129 25 37 20 -50 -2 -64 0 -59 9 4 7 -1 5 -12 -4 -33 -28 -76 -33
-93 -11 -11 14 -22 18 -36 12z"/>
<path d="M1876 823 c-6 -14 -5 -15 5 -6 7 7 10 15 7 18 -3 3 -9 -2 -12 -12z"/>
<path d="M1966 826 c3 -8 13 -17 22 -21 13 -5 13 -2 -3 15 -21 24 -26 25 -19
6z"/>
<path d="M1800 820 c0 -5 7 -10 16 -10 8 0 12 5 9 10 -3 6 -10 10 -16 10 -5 0
-9 -4 -9 -10z"/>
<path d="M2066 800 c22 -42 33 -45 20 -5 -6 19 -16 35 -23 35 -8 0 -7 -9 3
-30z"/>
<path d="M2372 822 c-8 -6 -2 -9 18 -9 20 0 26 3 18 9 -7 4 -15 8 -18 8 -3 0
-11 -4 -18 -8z"/>
<path d="M90 810 c0 -5 7 -10 16 -10 8 0 12 5 9 10 -3 6 -10 10 -16 10 -5 0
-9 -4 -9 -10z"/>
<path d="M1535 804 c-6 -8 -38 -20 -72 -26 -62 -11 -63 -12 -63 -45 0 -49 26
-69 107 -80 38 -6 90 -20 116 -32 25 -12 48 -21 52 -21 3 0 22 -11 43 -25 20
-13 59 -29 86 -35 26 -6 61 -17 77 -25 15 -8 32 -15 36 -15 13 1 -38 40 -52
40 -7 0 -18 7 -26 16 -8 10 -21 13 -37 9 -15 -4 -21 -2 -17 5 3 5 -2 11 -12
12 -33 2 -38 3 -52 12 -12 8 -11 11 4 23 16 11 16 13 3 13 -9 0 -18 -5 -20
-11 -2 -7 -27 -2 -68 15 -35 14 -71 26 -81 26 -10 0 -20 4 -24 10 -3 5 -12 7
-20 4 -8 -3 -20 -2 -27 2 -7 5 -19 9 -26 10 -13 2 -41 32 -42 44 0 20 24 33
64 34 36 1 48 5 57 23 14 26 8 40 -6 17z"/>
<path d="M1612 816 c4 -5 -4 -17 -17 -28 -41 -32 -31 -52 11 -23 42 28 74 32
74 9 0 -8 -4 -13 -9 -10 -5 4 -7 -3 -4 -14 3 -12 2 -20 -3 -19 -27 5 -64 -2
-59 -11 10 -17 54 -11 75 10 26 26 11 78 -23 76 -12 -1 -29 2 -37 8 -8 6 -12
7 -8 2z"/>
<path d="M1090 795 c0 -8 2 -15 4 -15 2 0 6 7 10 15 3 8 1 15 -4 15 -6 0 -10
-7 -10 -15z"/>
<path d="M1425 799 c-11 -17 1 -21 15 -4 8 9 8 15 2 15 -6 0 -14 -5 -17 -11z"/>
<path d="M1745 800 c3 -5 11 -10 16 -10 6 0 7 5 4 10 -3 6 -11 10 -16 10 -6 0
-7 -4 -4 -10z"/>
<path d="M2180 803 c0 -6 5 -15 10 -18 6 -3 10 -26 10 -50 0 -24 -4 -47 -10
-50 -5 -3 -10 -17 -10 -30 0 -13 -8 -31 -17 -41 -10 -10 -19 -28 -20 -40 -2
-26 -28 -81 -51 -106 -13 -15 -13 -18 -1 -18 8 0 32 31 52 70 26 48 42 67 52
64 9 -4 19 4 27 23 7 15 17 31 23 35 6 5 5 8 -3 8 -7 0 -18 -13 -23 -30 -14
-38 -34 -40 -24 -2 29 107 30 143 5 173 -10 13 -19 19 -20 12z"/>
<path d="M2230 795 c0 -8 5 -15 10 -15 6 0 10 7 10 15 0 8 -4 15 -10 15 -5 0
-10 -7 -10 -15z"/>
<path d="M1055 791 c3 -5 -1 -11 -7 -14 -7 -3 -3 -4 10 -4 25 1 29 12 6 21 -8
3 -13 2 -9 -3z"/>
<path d="M1135 790 c-3 -5 1 -10 9 -10 8 0 18 5 21 10 3 6 -1 10 -9 10 -8 0
-18 -4 -21 -10z"/>
<path d="M2470 780 c-8 -6 -46 -10 -85 -10 -102 -1 -125 -4 -125 -16 0 -7 10
-9 25 -6 16 3 25 0 25 -8 0 -10 3 -10 15 0 8 7 31 10 50 8 19 -2 35 -1 35 4 0
4 7 5 15 1 11 -4 0 -13 -33 -28 -27 -12 -52 -31 -56 -40 -11 -30 -1 -27 38 10
24 23 47 35 64 35 26 -1 26 -1 -7 -16 -19 -8 -31 -17 -28 -20 8 -8 78 27 72
36 -3 4 13 10 35 14 44 7 51 19 21 36 -24 13 -42 13 -61 0z"/>
<path d="M2571 744 l-64 -44 48 0 c31 0 55 6 67 16 14 13 21 14 32 5 8 -7 25
-11 38 -8 21 3 19 5 -14 20 -41 19 -58 37 -33 37 9 0 13 5 10 10 -9 15 -14 13
-84 -36z"/>
<path d="M80 767 c0 -8 7 -14 15 -14 11 0 12 4 4 14 -6 7 -13 13 -15 13 -2 0
-4 -6 -4 -13z"/>
<path d="M665 770 c-8 -13 5 -13 25 0 13 8 13 10 -2 10 -9 0 -20 -4 -23 -10z"/>
<path d="M1891 771 c-8 -5 -9 -11 -3 -15 5 -3 15 1 22 9 14 16 3 20 -19 6z"/>
<path d="M1998 773 c6 -2 18 -2 25 0 6 3 1 5 -13 5 -14 0 -19 -2 -12 -5z"/>
<path d="M583 746 c7 -14 15 -26 19 -26 11 0 -7 43 -20 48 -7 2 -7 -5 1 -22z"/>
<path d="M1090 766 c0 -2 8 -10 18 -17 15 -13 16 -12 3 4 -13 16 -21 21 -21
13z"/>
<path d="M778 754 c-3 -3 -20 -6 -36 -6 -17 -1 -33 -6 -36 -13 -6 -17 26 -11
89 15 15 6 16 9 4 9 -9 1 -18 -2 -21 -5z"/>
<path d="M820 750 c0 -5 5 -10 10 -10 6 0 10 5 10 10 0 6 -4 10 -10 10 -5 0
-10 -4 -10 -10z"/>
<path d="M1950 751 c0 -6 4 -13 10 -16 6 -3 7 1 4 9 -7 18 -14 21 -14 7z"/>
<path d="M634 739 c-9 -15 -2 -18 20 -9 17 6 18 7 3 13 -9 3 -19 2 -23 -4z"/>
<path d="M2070 744 c0 -8 40 -44 48 -44 3 0 -5 11 -18 25 -24 26 -30 29 -30
19z"/>
<path d="M2231 734 c0 -11 3 -14 6 -6 3 7 2 16 -1 19 -3 4 -6 -2 -5 -13z"/>
<path d="M112 726 c16 -8 34 -18 40 -21 7 -4 2 3 -12 14 -14 11 -32 21 -40 21
-8 0 -3 -7 12 -14z"/>
<path d="M551 731 c-8 -5 -21 -7 -30 -3 -9 3 -13 2 -9 -2 4 -4 20 -9 36 -10
21 -1 28 2 25 11 -6 15 -4 15 -22 4z"/>
<path d="M1715 720 c-3 -5 -1 -10 4 -10 6 0 11 5 11 10 0 6 -2 10 -4 10 -3 0
-8 -4 -11 -10z"/>
<path d="M480 709 c0 -5 5 -7 10 -4 6 3 10 8 10 11 0 2 -4 4 -10 4 -5 0 -10
-5 -10 -11z"/>
<path d="M784 704 c-19 -15 -18 -15 4 -11 14 3 22 0 22 -8 0 -15 -25 -37 -33
-29 -3 4 -13 -1 -22 -10 -9 -9 -24 -16 -33 -17 -23 -1 -50 -6 -70 -14 -15 -6
-15 -7 -1 -15 30 -17 169 47 169 79 0 9 5 22 12 29 9 9 9 12 0 12 -7 0 -12 -6
-12 -12 0 -10 -2 -10 -8 -1 -6 10 -12 10 -28 -3z"/>
<path d="M853 696 c0 -24 0 -24 34 -8 19 9 30 18 23 20 -6 2 -17 -2 -25 -8
-12 -10 -15 -9 -15 4 0 9 -4 16 -9 16 -5 0 -8 -11 -8 -24z"/>
<path d="M585 701 c-6 -11 33 -36 42 -27 7 7 -16 36 -28 36 -4 0 -10 -4 -14
-9z"/>
<path d="M1195 693 c22 -15 32 -16 39 -4 3 5 -8 11 -26 13 -28 5 -29 4 -13 -9z"/>
<path d="M2230 696 c0 -9 5 -16 10 -16 6 0 10 4 10 9 0 6 -4 13 -10 16 -5 3
-10 -1 -10 -9z"/>
<path d="M2275 680 c4 -12 2 -20 -5 -20 -6 0 -8 -5 -5 -10 4 -6 11 -8 16 -5
13 8 11 55 -2 55 -6 0 -8 -9 -4 -20z"/>
<path d="M107 683 c-14 -13 -7 -23 16 -22 12 0 16 3 9 6 -6 2 -10 9 -6 14 6
10 -9 12 -19 2z"/>
<path d="M674 678 c-9 -13 -3 -15 31 -8 l30 6 -28 6 c-15 3 -30 1 -33 -4z"/>
<path d="M1090 681 l-25 -7 32 -11 c26 -9 31 -9 27 2 -4 9 5 15 28 18 l33 4
-35 0 c-19 1 -46 -2 -60 -6z"/>
<path d="M2630 666 c32 -31 121 -70 113 -50 -3 8 -9 14 -14 14 -4 0 -6 6 -3
14 6 16 -52 46 -92 46 l-29 0 25 -24z m75 -17 c15 -14 -7 -10 -35 7 l-25 15
25 -7 c14 -3 29 -10 35 -15z"/>
<path d="M71 651 c-1 -44 30 -145 40 -129 4 6 3 21 -3 32 -7 12 -17 46 -24 76
-10 47 -12 50 -13 21z"/>
<path d="M540 672 c-8 -3 -19 -11 -23 -19 -5 -7 -12 -11 -16 -9 -4 3 -8 -1 -8
-9 0 -20 26 -19 34 1 3 9 15 19 26 23 23 9 10 21 -13 13z"/>
<path d="M2437 668 c-21 -6 -41 -17 -44 -25 -8 -20 4 -28 22 -13 8 7 15 10 15
8 0 -3 19 -2 42 2 44 8 92 -5 81 -23 -3 -6 -1 -7 6 -3 16 10 5 24 -32 40 -29
13 -29 14 -9 15 20 1 130 -44 195 -80 11 -6 21 -8 24 -5 3 3 -19 16 -48 30
-30 14 -70 35 -89 46 -38 22 -99 25 -163 8z"/>
<path d="M2107 664 c-3 -5 2 -15 12 -21 14 -9 17 -7 19 11 1 15 -1 17 -7 7 -7
-11 -9 -11 -13 0 -3 8 -7 9 -11 3z"/>
<path d="M620 640 c-6 -11 -8 -25 -5 -30 3 -5 1 -11 -5 -15 -18 -11 -10 -25
15 -25 25 0 33 14 15 25 -5 3 -7 19 -3 35 6 35 -1 39 -17 10z"/>
<path d="M700 656 c0 -9 30 -14 35 -6 4 6 -3 10 -14 10 -12 0 -21 -2 -21 -4z"/>
<path d="M1144 640 c-31 -12 -38 -28 -19 -46 14 -15 15 -14 11 10 -3 18 0 26
9 26 8 0 17 5 20 10 7 12 7 12 -21 0z"/>
<path d="M1196 633 c-6 -14 -5 -15 5 -6 7 7 10 15 7 18 -3 3 -9 -2 -12 -12z"/>
<path d="M2310 629 c0 -13 5 -31 11 -39 9 -13 10 -12 5 3 -5 16 8 25 17 10 2
-5 3 -3 1 3 -1 6 3 17 9 23 8 8 8 11 -1 11 -7 0 -12 -6 -12 -12 0 -8 -7 -5
-15 6 -15 19 -15 19 -15 -5z"/>
<path d="M169 632 c11 -8 11 -10 0 -14 -10 -3 -9 -6 3 -10 11 -5 15 -2 14 10
-2 9 -9 18 -17 20 -12 3 -12 2 0 -6z"/>
<path d="M2260 611 c-12 -24 -13 -31 -1 -31 5 0 12 8 14 18 2 9 3 4 1 -13 -3
-22 -1 -26 6 -15 13 19 13 60 0 60 -5 0 -14 -9 -20 -19z"/>
<path d="M505 602 c-1 -2 -1 -12 2 -23 6 -21 18 -25 28 -9 3 6 14 10 23 10 9
0 25 7 35 14 16 12 12 14 -33 13 -28 -1 -53 -3 -55 -5z"/>
<path d="M890 606 c0 -8 51 -13 56 -5 3 5 -9 9 -25 9 -17 0 -31 -2 -31 -4z"/>
<path d="M2500 603 c-8 -2 -23 -15 -33 -29 l-18 -25 33 21 c39 24 61 25 96 5
15 -8 45 -21 66 -30 35 -14 42 -14 62 0 13 8 33 15 45 15 12 0 19 3 15 7 -9
10 -95 10 -89 1 2 -5 0 -8 -6 -8 -5 0 -11 6 -13 12 -3 7 -13 13 -24 13 -10 0
-18 6 -16 13 1 6 -2 12 -8 12 -5 0 -10 -8 -10 -17 0 -15 -2 -16 -10 -3 -5 8
-10 12 -10 9 0 -4 -15 -4 -32 0 -18 4 -40 5 -48 4z"/>
<path d="M120 576 c0 -2 7 -7 16 -10 8 -3 12 -2 9 4 -6 10 -25 14 -25 6z"/>
<path d="M651 564 c-8 -9 -22 -13 -35 -10 -22 5 -64 -19 -53 -30 4 -4 13 -1
22 6 12 10 21 10 45 0 16 -7 34 -18 41 -26 8 -10 16 -11 30 -3 11 5 25 9 32 8
24 -3 38 1 32 10 -3 5 -1 12 5 16 5 3 10 12 10 18 0 7 -6 5 -14 -5 -7 -9 -21
-17 -32 -16 -10 0 -31 -2 -45 -6 -18 -5 -29 -3 -38 8 -8 9 -9 16 -4 16 5 0 18
7 29 15 14 11 15 14 4 14 -8 0 -21 -7 -29 -15z"/>
<path d="M940 572 c0 -7 -13 -9 -34 -5 -19 3 -46 3 -59 -1 -24 -6 -77 -46 -61
-46 6 0 15 5 22 12 6 6 36 12 67 13 54 2 87 17 72 32 -4 3 -7 1 -7 -5z"/>
<path d="M1360 559 c-6 -11 -10 -27 -8 -35 2 -8 8 1 14 20 12 40 10 46 -6 15z"/>
<path d="M2355 570 c3 -5 8 -10 11 -10 2 0 4 5 4 10 0 6 -5 10 -11 10 -5 0 -7
-4 -4 -10z"/>
<path d="M50 545 c0 -16 9 -45 20 -63 11 -18 20 -39 20 -47 0 -8 7 -15 16 -15
10 0 14 -6 10 -15 -6 -16 44 -135 56 -135 8 0 -20 79 -33 94 -4 5 -3 16 3 25
7 12 5 25 -8 47 -11 17 -34 55 -51 85 -31 51 -33 52 -33 24z m87 -147 c-3 -8
-6 -5 -6 6 -1 11 2 17 5 13 3 -3 4 -12 1 -19z"/>
<path d="M2185 559 c-11 -16 -1 -19 13 -3 7 8 8 14 3 14 -5 0 -13 -5 -16 -11z"/>
<path d="M2227 564 c-3 -3 -3 -13 0 -22 4 -8 2 -13 -3 -9 -5 3 -10 -3 -10 -14
0 -19 1 -19 13 -2 8 9 11 23 9 30 -3 6 3 14 12 16 14 4 14 5 1 6 -9 0 -18 -2
-22 -5z"/>
<path d="M166 552 c5 -5 30 -17 56 -26 27 -10 52 -25 58 -34 8 -15 9 -15 10 4
0 15 -13 26 -50 42 -50 22 -93 30 -74 14z"/>
<path d="M2276 532 c-13 -26 -13 -28 5 -29 10 -1 21 2 24 8 4 5 -2 6 -11 2
-13 -5 -15 -3 -8 8 9 15 15 39 8 39 -2 0 -10 -13 -18 -28z"/>
<path d="M520 530 c0 -5 5 -10 10 -10 6 0 10 5 10 10 0 6 -4 10 -10 10 -5 0
-10 -4 -10 -10z"/>
<path d="M1160 524 c0 -8 5 -12 10 -9 6 4 8 11 5 16 -9 14 -15 11 -15 -7z"/>
<path d="M2473 525 c0 -18 16 -23 47 -15 l25 7 -28 12 c-37 14 -44 14 -44 -4z"/>
<path d="M130 508 c0 -12 3 -17 8 -12 4 5 11 12 15 15 5 3 2 9 -7 12 -12 5
-16 0 -16 -15z"/>
<path d="M820 515 c-7 -9 -10 -19 -6 -23 4 -4 12 0 16 9 6 11 18 15 35 11 15
-2 25 0 25 7 0 17 -56 13 -70 -4z"/>
<path d="M1196 515 c-3 -8 -1 -15 4 -15 6 0 10 7 10 15 0 8 -2 15 -4 15 -2 0
-6 -7 -10 -15z"/>
<path d="M2156 514 c-5 -14 -4 -15 9 -4 17 14 19 20 6 20 -5 0 -12 -7 -15 -16z"/>
<path d="M2718 518 c-16 -5 -28 -13 -28 -17 0 -4 -26 -14 -57 -21 -32 -7 -63
-17 -69 -22 -6 -4 -14 -5 -17 -1 -4 3 -7 2 -7 -3 0 -5 54 -9 119 -9 65 0 114
3 107 7 -6 4 -23 8 -38 8 -15 0 -30 5 -34 11 -8 13 40 8 95 -9 39 -13 36 -8
-16 24 -38 23 -38 23 -10 24 15 0 27 5 27 10 0 12 -36 12 -72 -2z"/>
<path d="M908 513 c6 -2 18 -2 25 0 6 3 1 5 -13 5 -14 0 -19 -2 -12 -5z"/>
<path d="M2433 506 c0 -8 4 -13 9 -10 4 3 8 -4 8 -16 0 -13 -4 -19 -12 -14 -7
4 -8 3 -4 -5 6 -9 11 -9 21 -1 10 8 17 6 27 -8 16 -22 67 -57 74 -50 2 3 -7
13 -21 22 -14 9 -25 20 -25 25 0 5 34 21 75 36 41 15 75 30 75 32 0 12 -100
-13 -132 -33 l-36 -23 -30 30 c-18 19 -29 24 -29 15z"/>
<path d="M918 497 c-21 -6 -38 -14 -38 -18 0 -10 60 7 74 21 5 5 8 9 6 9 -3
-1 -22 -6 -42 -12z"/>
<path d="M1826 501 c-3 -5 1 -11 9 -14 9 -4 12 -1 8 9 -6 16 -10 17 -17 5z"/>
<path d="M2159 483 l-24 -28 28 24 c15 14 27 26 27 28 0 8 -8 1 -31 -24z"/>
<path d="M190 491 c0 -5 -11 -12 -25 -15 -24 -6 -36 -26 -15 -26 6 0 10 5 10
11 0 6 9 9 20 6 11 -3 18 -1 14 4 -3 5 0 9 5 9 6 0 11 5 11 10 0 6 -4 10 -10
10 -5 0 -10 -4 -10 -9z"/>
<path d="M547 494 c-3 -6 3 -15 13 -22 15 -9 21 -9 26 1 4 6 4 9 -1 5 -4 -4
-13 0 -20 9 -7 9 -15 12 -18 7z"/>
<path d="M634 486 c-4 -9 -4 -20 0 -23 3 -4 6 -1 6 7 0 10 4 10 18 -1 16 -13
16 -13 2 6 -8 11 -16 22 -17 24 -1 2 -5 -4 -9 -13z"/>
<path d="M974 492 c-9 -5 -8 -10 1 -19 11 -10 13 -9 12 7 -1 11 -1 20 -2 20 0
0 -5 -4 -11 -8z"/>
<path d="M1146 481 c-3 -4 6 -6 19 -3 14 2 25 6 25 8 0 8 -39 4 -44 -5z"/>
<path d="M1930 479 c0 -5 16 -17 35 -26 27 -13 38 -14 47 -5 9 9 8 12 -7 12
-11 0 -32 7 -47 14 -16 8 -28 11 -28 5z"/>
<path d="M2175 470 c-10 -11 -14 -20 -9 -20 5 0 15 9 22 20 7 11 11 20 9 20
-2 0 -12 -9 -22 -20z"/>
<path d="M788 463 c7 -3 16 -2 19 1 4 3 -2 6 -13 5 -11 0 -14 -3 -6 -6z"/>
<path d="M1326 310 c2 -91 8 -178 13 -195 7 -23 10 -25 12 -10 1 11 1 27 0 35
-1 8 -3 57 -5 108 -3 79 -1 96 15 116 10 13 19 30 18 38 0 7 -5 3 -11 -10 -17
-34 -32 -21 -39 34 -4 27 -5 -25 -3 -116z"/>
<path d="M2326 462 c-7 -6 5 -32 14 -32 4 0 10 8 12 18 5 17 -14 27 -26 14z"/>
<path d="M2377 463 c-4 -3 -7 -13 -7 -22 1 -13 3 -13 11 2 11 19 8 33 -4 20z"/>
<path d="M925 449 c-17 -8 -16 -9 8 -6 18 3 27 0 27 -10 0 -8 4 -12 10 -8 12
7 1 35 -14 34 -6 0 -20 -5 -31 -10z"/>
<path d="M1894 416 c20 -24 36 -48 36 -54 0 -6 4 -14 10 -17 14 -9 1 23 -28
67 -13 20 -30 39 -38 42 -9 3 1 -14 20 -38z"/>
<path d="M2206 445 c-24 -25 -19 -39 6 -15 12 11 19 22 16 25 -3 3 -13 -1 -22
-10z"/>
<path d="M836 438 c3 -5 10 -6 15 -3 13 9 11 12 -6 12 -8 0 -12 -4 -9 -9z"/>
<path d="M2025 440 c-4 -6 5 -10 19 -10 14 0 26 5 26 10 0 6 -9 10 -19 10 -11
0 -23 -4 -26 -10z"/>
<path d="M2395 439 c-10 -15 3 -25 16 -12 7 7 7 13 1 17 -6 3 -14 1 -17 -5z"/>
<path d="M2460 439 c0 -5 5 -7 10 -4 6 3 10 8 10 11 0 2 -4 4 -10 4 -5 0 -10
-5 -10 -11z"/>
<path d="M610 391 c-51 -49 -73 -96 -24 -50 31 29 88 99 80 99 -3 0 -28 -22
-56 -49z"/>
<path d="M676 423 c-6 -14 -5 -15 5 -6 7 7 10 15 7 18 -3 3 -9 -2 -12 -12z"/>
<path d="M2430 430 c0 -5 5 -10 11 -10 5 0 7 5 4 10 -3 6 -8 10 -11 10 -2 0
-4 -4 -4 -10z"/>
<path d="M2576 431 c-34 -13 1 -24 51 -16 33 5 42 9 32 16 -17 10 -56 11 -83
0z"/>
<path d="M756 418 c3 -5 10 -6 15 -3 13 9 11 12 -6 12 -8 0 -12 -4 -9 -9z"/>
<path d="M990 415 c0 -8 2 -15 4 -15 2 0 6 7 10 15 3 8 1 15 -4 15 -6 0 -10
-7 -10 -15z"/>
<path d="M2794 420 c-21 -20 -192 -44 -210 -29 -9 7 -18 7 -31 -1 -16 -10 -16
-11 0 -6 9 3 17 2 17 -3 0 -8 20 -17 58 -26 6 -2 12 1 12 6 0 12 117 12 140
-1 13 -7 21 -7 25 0 3 5 2 10 -2 10 -5 0 -18 7 -29 15 -19 15 -19 15 1 9 32
-11 55 -35 87 -91 17 -29 31 -53 33 -53 8 0 -19 66 -32 78 -7 7 -13 21 -13 30
0 10 -9 23 -20 30 -12 7 -18 17 -15 22 8 12 -10 21 -21 10z"/>
<path d="M705 410 c3 -5 10 -10 16 -10 5 0 9 5 9 10 0 6 -7 10 -16 10 -8 0
-12 -4 -9 -10z"/>
<path d="M1990 415 c0 -13 34 -34 55 -34 12 0 15 3 6 6 -11 5 -11 7 0 15 10 6
7 7 -9 3 -13 -4 -29 -1 -37 5 -8 7 -15 9 -15 5z"/>
<path d="M67 403 c-12 -11 -8 -30 7 -30 7 0 13 6 12 13 -3 18 -11 25 -19 17z"/>
<path d="M904 393 c2 -10 7 -17 12 -15 13 3 11 25 -3 29 -6 2 -10 -4 -9 -14z"/>
<path d="M967 403 c-4 -3 -7 -11 -7 -17 0 -6 5 -5 12 2 6 6 9 14 7 17 -3 3 -9
2 -12 -2z"/>
<path d="M1257 328 c-40 -89 -42 -98 -27 -98 6 0 10 6 10 14 0 8 4 17 9 20 12
8 8 -13 -7 -41 -7 -12 -13 -38 -14 -57 -2 -20 -7 -36 -13 -36 -5 0 -3 -5 5
-10 12 -8 18 2 31 53 9 34 24 82 34 107 16 44 27 130 15 130 -3 0 -23 -37 -43
-82z"/>
<path d="M2145 400 c-3 -5 -2 -10 4 -10 5 0 13 5 16 10 3 6 2 10 -4 10 -5 0
-13 -4 -16 -10z"/>
<path d="M2410 399 c0 -5 5 -7 10 -4 6 3 10 8 10 11 0 2 -4 4 -10 4 -5 0 -10
-5 -10 -11z"/>
<path d="M2440 385 c0 -9 -5 -13 -11 -10 -6 4 -5 -2 3 -14 14 -23 29 -23 36 0
3 11 1 11 -8 -1 -10 -12 -11 -11 -7 7 3 13 1 26 -4 29 -5 3 -9 -2 -9 -11z"/>
<path d="M792 383 c-18 -4 -72 -43 -59 -43 8 0 87 41 87 45 0 3 -1 4 -2 4 -2
-1 -13 -4 -26 -6z"/>
<path d="M1886 368 c10 -14 21 -24 23 -22 3 3 -6 15 -18 27 l-24 22 19 -27z"/>
<path d="M1001 358 c-1 -32 10 -36 30 -11 12 15 12 16 -3 10 -11 -4 -18 0 -21
11 -3 10 -5 5 -6 -10z"/>
<path d="M239 353 c5 -10 60 -67 122 -128 62 -60 97 -90 79 -67 -27 36 -31 46
-19 54 10 7 8 8 -8 3 -18 -5 -30 2 -55 32 -93 107 -146 154 -119 106z"/>
<path d="M2061 343 c13 -16 26 -30 28 -33 2 -3 1 4 -4 15 -4 11 -8 26 -8 33 0
6 -9 12 -20 12 -20 0 -19 -1 4 -27z"/>
<path d="M2138 363 c7 -3 16 -2 19 1 4 3 -2 6 -13 5 -11 0 -14 -3 -6 -6z"/>
<path d="M1382 340 c-12 -12 -22 -26 -22 -32 0 -6 1 -9 3 -7 1 2 13 16 26 32
29 32 24 36 -7 7z"/>
<path d="M530 324 c0 -14 4 -23 10 -19 6 3 10 15 10 26 0 10 -4 19 -10 19 -5
0 -10 -12 -10 -26z"/>
<path d="M1540 342 c22 -14 198 -59 255 -66 42 -4 45 -4 20 5 -16 5 -48 14
-70 19 -22 5 -60 14 -85 20 -25 7 -54 13 -65 14 -11 2 -31 6 -45 10 -17 5 -20
4 -10 -2z"/>
<path d="M2482 330 c0 -14 2 -19 5 -12 2 6 2 18 0 25 -3 6 -5 1 -5 -13z"/>
<path d="M2650 339 c0 -15 15 -17 33 -4 16 11 15 13 -8 13 -14 0 -25 -4 -25
-9z"/>
<path d="M2728 343 c6 -2 18 -2 25 0 6 3 1 5 -13 5 -14 0 -19 -2 -12 -5z"/>
<path d="M760 299 c-23 -23 -39 -44 -36 -46 5 -5 86 74 86 83 0 10 -12 1 -50
-37z"/>
<path d="M910 304 c-36 -18 -66 -33 -68 -31 -1 1 -27 -18 -57 -43 -36 -30 -50
-46 -40 -48 9 -2 25 9 37 24 12 15 62 46 115 70 51 24 93 48 93 54 0 15 -8 12
-80 -26z"/>
<path d="M96 321 c-3 -5 1 -11 9 -15 9 -3 15 0 15 9 0 16 -16 20 -24 6z"/>
<path d="M586 306 c-9 -14 -16 -31 -16 -38 0 -7 10 2 21 20 12 18 19 35 17 38
-3 2 -13 -7 -22 -20z"/>
<path d="M2421 327 c2 -1 13 -9 24 -17 19 -14 19 -14 6 3 -7 9 -18 17 -24 17
-6 0 -8 -1 -6 -3z"/>
<path d="M2505 320 c-3 -5 -2 -10 4 -10 5 0 13 5 16 10 3 6 2 10 -4 10 -5 0
-13 -4 -16 -10z"/>
<path d="M2686 317 c3 -8 18 -17 33 -20 27 -6 131 -98 131 -117 0 -5 4 -10 9
-10 8 0 18 -27 27 -67 1 -7 -4 -13 -12 -13 -9 0 -12 5 -9 10 3 6 1 10 -5 10
-7 0 -9 -7 -6 -16 3 -9 6 -20 6 -26 0 -6 9 -8 19 -5 21 5 31 -10 31 -46 1 -18
2 -19 10 -6 10 17 -11 113 -35 159 -7 14 -36 47 -63 72 -27 26 -47 50 -43 54
3 4 0 4 -6 0 -7 -4 -13 -2 -13 4 0 6 -4 8 -10 5 -5 -3 -10 -2 -10 3 0 5 -6 9
-12 9 -7 0 -21 4 -31 8 -13 5 -16 3 -11 -8z"/>
<path d="M1013 269 c4 -29 4 -49 1 -46 -3 3 -14 -2 -24 -10 -25 -22 -90 -25
-82 -5 4 10 1 13 -7 8 -7 -5 -10 -14 -7 -22 3 -7 -5 -20 -17 -29 -15 -10 -17
-15 -6 -15 8 0 22 9 32 20 10 12 23 18 29 14 6 -4 -5 -16 -28 -30 -62 -36 -80
-51 -70 -60 5 -5 11 -4 13 3 2 7 29 26 59 43 31 18 51 36 48 42 -4 6 -2 8 4 5
13 -9 72 24 72 39 0 6 6 16 13 22 7 6 14 26 15 44 l2 33 -19 -40 c-17 -36 -19
-37 -20 -14 -1 14 4 30 11 37 9 9 8 12 -6 12 -17 0 -18 -6 -13 -51z"/>
<path d="M2140 310 c8 -5 20 -10 25 -10 6 0 3 5 -5 10 -8 5 -19 10 -25 10 -5
0 -3 -5 5 -10z"/>
<path d="M680 300 c0 -5 5 -10 10 -10 6 0 10 5 10 10 0 6 -4 10 -10 10 -5 0
-10 -4 -10 -10z"/>
<path d="M980 300 c-8 -5 -12 -12 -9 -15 4 -3 12 1 19 10 14 17 11 19 -10 5z"/>
<path d="M1860 300 c-8 -5 -12 -12 -9 -15 4 -3 12 1 19 10 14 17 11 19 -10 5z"/>
<path d="M1911 294 c0 -11 3 -14 6 -6 3 7 2 16 -1 19 -3 4 -6 -2 -5 -13z"/>
<path d="M55 291 c-3 -5 -1 -12 5 -16 5 -3 10 1 10 9 0 18 -6 21 -15 7z"/>
<path d="M2796 285 c3 -8 10 -13 14 -10 5 3 10 1 12 -3 1 -5 23 -26 48 -48 25
-21 38 -30 30 -19 -30 42 -56 67 -82 81 -24 13 -27 12 -22 -1z"/>
<path d="M2110 283 c0 -9 36 -43 45 -43 3 0 5 3 5 8 -1 10 -50 45 -50 35z"/>
<path d="M590 252 c-11 -13 -20 -32 -20 -41 0 -10 7 -6 18 12 10 17 25 27 37
26 51 -4 59 14 10 23 -19 4 -31 -1 -45 -20z"/>
<path d="M2715 270 c3 -5 8 -10 11 -10 2 0 4 5 4 10 0 6 -5 10 -11 10 -5 0 -7
-4 -4 -10z"/>
<path d="M478 252 c-36 -22 -35 -32 7 -88 19 -25 35 -56 35 -69 0 -29 -27 -58
-50 -52 -13 3 -16 -1 -12 -19 4 -24 17 -32 24 -15 2 4 13 12 26 15 16 6 22 3
22 -8 0 -9 6 -16 14 -16 11 0 12 8 5 38 -5 20 -9 63 -9 96 0 57 -17 137 -29
135 -3 0 -18 -8 -33 -17z m32 -52 c0 -11 -2 -20 -3 -20 -2 0 -12 9 -22 20 -18
19 -17 20 3 20 15 0 22 -6 22 -20z"/>
<path d="M972 240 c-22 -29 -20 -38 4 -22 11 7 29 52 22 52 -3 0 -14 -13 -26
-30z"/>
<path d="M2518 259 c-3 -8 1 -20 8 -27 15 -14 17 -7 5 22 -6 15 -9 16 -13 5z"/>
<path d="M53 252 c-31 -5 -29 -23 7 -57 24 -23 39 -29 77 -29 25 -1 48 4 50
10 2 7 -7 9 -25 6 -34 -5 -95 24 -89 41 2 7 19 13 38 15 53 5 61 23 9 20 -25
-1 -55 -4 -67 -6z"/>
<path d="M1090 258 c0 -11 30 -78 35 -78 3 0 -2 17 -10 37 -15 36 -25 52 -25
41z"/>
<path d="M2595 251 c3 -5 1 -12 -5 -16 -5 -3 -10 -2 -10 3 0 5 -7 9 -15 9 -12
0 -10 -6 7 -25 37 -38 55 -45 61 -21 4 16 3 18 -8 9 -21 -17 -37 -3 -25 20 13
24 13 30 -1 30 -5 0 -8 -4 -4 -9z"/>
<path d="M710 220 c-14 -26 -12 -39 3 -19 7 9 19 18 26 21 12 3 12 6 -2 11
-11 4 -20 0 -27 -13z"/>
<path d="M1470 230 c-9 -6 -10 -10 -3 -10 6 0 15 5 18 10 8 12 4 12 -15 0z"/>
<path d="M1765 227 c-18 -10 -98 -29 -200 -48 -36 -6 -67 -19 -77 -30 -9 -10
-21 -19 -26 -19 -5 0 -16 -8 -23 -17 -13 -16 -12 -17 4 -4 15 12 17 11 17 -3
0 -9 5 -16 10 -16 6 0 10 7 10 16 0 8 5 12 10 9 9 -5 14 7 11 27 0 3 13 9 29
12 26 5 83 17 100 21 3 1 24 5 48 9 71 13 147 42 124 48 -10 3 -27 1 -37 -5z"/>
<path d="M2213 229 c-13 -5 -23 -13 -23 -18 0 -11 31 -24 38 -16 3 3 2 5 -3 5
-4 0 -2 7 5 15 17 20 11 25 -17 14z"/>
<path d="M616 195 c-16 -14 -34 -25 -39 -25 -6 0 4 -11 23 -25 19 -14 35 -25
36 -25 6 0 -3 30 -11 37 -4 4 -5 2 -1 -4 4 -7 3 -13 -3 -13 -21 0 -19 17 6 44
33 35 25 42 -11 11z"/>
<path d="M787 174 c4 -12 3 -15 -6 -10 -7 5 -10 2 -9 -6 2 -8 -5 -12 -17 -10
-19 2 -19 2 -2 -9 14 -8 22 -7 36 5 10 9 21 13 25 9 5 -5 7 1 4 12 -2 11 -11
21 -21 23 -12 3 -15 -1 -10 -14z"/>
<path d="M1420 175 c0 -9 6 -12 15 -9 8 4 15 10 15 15 0 5 -7 9 -15 9 -8 0
-15 -7 -15 -15z"/>
<path d="M694 162 c3 -18 18 -20 24 -4 1 5 -4 12 -12 15 -9 4 -13 0 -12 -11z"/>
<path d="M1037 154 c-14 -12 -28 -21 -31 -18 -3 2 -1 -2 4 -8 8 -10 16 -5 35
17 19 23 27 27 33 17 7 -10 11 -10 21 1 20 25 -34 17 -62 -9z"/>
<path d="M1380 160 c-14 -11 -20 -20 -14 -20 6 0 19 9 29 20 23 25 17 25 -15
0z"/>
<path d="M2124 172 c-6 -4 -17 -18 -24 -31 -14 -28 -16 -31 -61 -84 -17 -21
-29 -40 -26 -43 7 -8 52 42 93 104 35 51 40 69 18 54z"/>
<path d="M2223 162 c10 -10 14 -22 10 -25 -3 -4 -2 -7 4 -7 6 0 13 9 16 19 3
14 1 18 -9 14 -8 -3 -14 0 -14 6 0 6 -5 11 -12 11 -6 0 -4 -7 5 -18z"/>
<path d="M1130 165 c0 -5 5 -17 10 -25 5 -8 10 -10 10 -5 0 6 -5 17 -10 25 -5
8 -10 11 -10 5z"/>
<path d="M2147 122 c-22 -65 -32 -122 -19 -122 5 0 12 7 16 15 8 21 26 19 27
-2 0 -13 2 -14 6 -4 3 8 -2 20 -11 27 -13 9 -16 20 -11 48 4 20 11 36 16 36 7
0 4 38 -4 46 -2 2 -11 -18 -20 -44z"/>
<path d="M2676 156 c8 -20 18 -20 34 -1 9 10 9 15 1 15 -6 0 -11 -5 -11 -11 0
-8 -5 -7 -15 1 -13 11 -14 10 -9 -4z"/>
<path d="M2815 161 c-3 -5 -1 -12 5 -16 5 -3 10 1 10 9 0 18 -6 21 -15 7z"/>
<path d="M200 139 c0 -5 5 -7 10 -4 6 3 10 8 10 11 0 2 -4 4 -10 4 -5 0 -10
-5 -10 -11z"/>
<path d="M561 129 c-1 -14 10 -43 24 -63 14 -20 25 -43 25 -51 0 -19 58 -20
83 -1 15 12 15 14 2 19 -8 4 -14 1 -12 -6 3 -16 -33 -9 -57 11 -10 10 -29 40
-41 67 -20 42 -23 46 -24 24z"/>
<path d="M2745 140 c3 -5 8 -10 11 -10 2 0 4 5 4 10 0 6 -5 10 -11 10 -5 0 -7
-4 -4 -10z"/>
<path d="M2840 136 c0 -9 5 -16 10 -16 6 0 10 4 10 9 0 6 -4 13 -10 16 -5 3
-10 -1 -10 -9z"/>
<path d="M107 126 c-6 -16 61 -48 78 -38 6 4 2 8 -7 10 -23 4 -23 29 0 35 9 3
-2 5 -24 6 -28 1 -44 -4 -47 -13z"/>
<path d="M2455 130 c-3 -5 -1 -10 4 -10 6 0 11 5 11 10 0 6 -2 10 -4 10 -3 0
-8 -4 -11 -10z"/>
<path d="M657 123 c-4 -3 -2 -12 5 -20 10 -12 7 -13 -15 -8 -16 4 -27 3 -27
-3 0 -10 26 -22 92 -42 20 -6 42 -18 48 -25 11 -13 17 -11 42 10 35 30 28 29
102 5 86 -29 92 -23 11 9 l-70 28 -34 -19 c-33 -19 -34 -19 -80 4 -47 22 -73
47 -65 60 6 10 0 10 -9 1z"/>
<path d="M1295 120 c-3 -5 -2 -10 4 -10 5 0 13 5 16 10 3 6 2 10 -4 10 -5 0
-13 -4 -16 -10z"/>
<path d="M2305 120 c-3 -5 -1 -10 4 -10 6 0 11 5 11 10 0 6 -2 10 -4 10 -3 0
-8 -4 -11 -10z"/>
<path d="M1716 111 c-4 -6 -25 -9 -46 -8 -21 2 -37 0 -34 -5 3 -4 0 -9 -5 -9
-14 -2 -20 -3 -55 -12 -21 -6 -33 -3 -47 9 -11 9 -19 13 -19 8 0 -19 36 -39
64 -36 17 2 66 12 110 21 68 15 88 16 128 5 27 -6 46 -8 43 -4 -8 12 -93 33
-105 25 -7 -4 -16 -2 -20 5 -5 9 -9 9 -14 1z"/>
<path d="M2795 103 c3 -8 5 -17 5 -19 0 -2 4 -4 8 -4 4 0 8 8 8 18 0 10 -6 19
-14 19 -7 0 -10 -7 -7 -14z"/>
<path d="M95 88 c17 -27 17 -28 -2 -28 -10 0 -24 5 -29 10 -7 7 -11 6 -11 -4
0 -16 55 -28 63 -14 3 5 10 6 15 2 15 -9 69 -11 63 -3 -2 4 -21 13 -42 20 -20
6 -46 19 -56 28 -19 16 -19 15 -1 -11z"/>
<path d="M758 103 c6 -2 18 -2 25 0 6 3 1 5 -13 5 -14 0 -19 -2 -12 -5z"/>
<path d="M1260 101 c0 -11 40 -22 54 -14 5 4 1 10 -10 14 -27 11 -44 11 -44 0z"/>
<path d="M2256 95 c4 -8 8 -15 10 -15 2 0 4 7 4 15 0 8 -4 15 -10 15 -5 0 -7
-7 -4 -15z"/>
<path d="M794 84 c-18 -14 -18 -15 4 -4 12 6 22 13 22 15 0 8 -5 6 -26 -11z"/>
<path d="M880 91 c0 -5 18 -11 39 -13 31 -3 37 -1 29 9 -12 15 -68 18 -68 4z"/>
<path d="M1085 80 c3 -6 -1 -13 -9 -16 -21 -8 -21 -24 0 -24 8 0 13 4 9 9 -3
5 -1 12 5 16 13 8 13 25 -1 25 -5 0 -7 -5 -4 -10z"/>
<path d="M1428 45 c-10 -25 -13 -45 -8 -45 4 0 11 14 15 30 4 17 10 28 14 26
4 -3 8 4 8 15 3 33 -12 21 -29 -26z"/>
<path d="M985 70 c-20 -9 -17 -11 23 -15 18 -2 20 0 11 11 -6 8 -12 14 -13 13
0 0 -10 -4 -21 -9z"/>
<path d="M1346 48 c1 -18 3 -36 3 -40 1 -5 9 -8 19 -8 14 0 15 2 2 10 -9 6
-14 21 -12 40 2 16 -1 30 -6 30 -5 0 -8 -15 -6 -32z"/>
<path d="M1295 54 c-19 -20 -14 -28 13 -20 10 4 19 13 19 21 0 19 -12 19 -32
-1z"/>
<path d="M2671 44 c0 -11 3 -14 6 -6 3 7 2 16 -1 19 -3 4 -6 -2 -5 -13z"/>
<path d="M1488 33 c-18 -22 -3 -25 22 -5 18 15 20 19 6 19 -9 0 -21 -6 -28
-14z"/>
<path d="M1785 40 c-20 -9 -20 -9 0 -9 11 0 27 4 35 9 13 9 13 10 0 9 -8 0
-24 -4 -35 -9z"/>
<path d="M1110 26 c0 -20 20 -31 29 -17 6 9 15 9 35 1 39 -14 46 -13 46 11 0
16 -3 19 -12 11 -8 -5 -22 -6 -33 -1 -33 13 -65 10 -65 -5z"/>
<path d="M1710 25 c-72 -19 -79 -25 -22 -21 29 2 58 8 64 14 18 18 7 20 -42 7z"/>
<path d="M2830 35 c0 -15 18 -40 24 -34 3 3 -1 14 -9 25 -8 10 -14 15 -15 9z"/>
<path d="M2960 28 c0 -9 5 -20 10 -23 13 -8 13 5 0 25 -8 13 -10 13 -10 -2z"/>
<path d="M90 20 c0 -5 7 -7 15 -4 8 4 15 8 15 10 0 2 -7 4 -15 4 -8 0 -15 -4
-15 -10z"/>
<path d="M1308 3 c7 -3 16 -2 19 1 4 3 -2 6 -13 5 -11 0 -14 -3 -6 -6z"/>
</g>
</svg>
